solid OpenSCAD_Model
  facet normal 0.976291 -0.216462 0
    outer loop
      vertex 2.41481 -0.647047 2
      vertex 2.46202 -0.43412 -2
      vertex 2.46202 -0.43412 2
    endloop
  endfacet
  facet normal 0.976291 -0.216462 0
    outer loop
      vertex 2.46202 -0.43412 -2
      vertex 2.41481 -0.647047 2
      vertex 2.41481 -0.647047 -2
    endloop
  endfacet
  facet normal -0.843397 -0.537291 0
    outer loop
      vertex -2.04788 -1.43394 -2
      vertex -2.16506 -1.25 2
      vertex -2.16506 -1.25 -2
    endloop
  endfacet
  facet normal -0.843397 -0.537291 0
    outer loop
      vertex -2.16506 -1.25 2
      vertex -2.04788 -1.43394 -2
      vertex -2.04788 -1.43394 2
    endloop
  endfacet
  facet normal -0.999049 -0.0436046 0
    outer loop
      vertex -2.49049 -0.217889 -2
      vertex -2.5 0 2
      vertex -2.5 0 -2
    endloop
  endfacet
  facet normal -0.999049 -0.0436046 0
    outer loop
      vertex -2.5 0 2
      vertex -2.49049 -0.217889 -2
      vertex -2.49049 -0.217889 2
    endloop
  endfacet
  facet normal -0.300688 -0.953723 0
    outer loop
      vertex -0.85505 -2.34923 -2
      vertex -0.75 -2.38235 2
      vertex -0.85505 -2.34923 2
    endloop
  endfacet
  facet normal -0.300688 -0.953723 -0
    outer loop
      vertex -0.75 -2.38235 2
      vertex -0.85505 -2.34923 -2
      vertex -0.75 -2.38235 -2
    endloop
  endfacet
  facet normal -0.537291 0.843397 0
    outer loop
      vertex -1.25 2.16506 -2
      vertex -1.43394 2.04788 2
      vertex -1.25 2.16506 2
    endloop
  endfacet
  facet normal -0.537291 0.843397 0
    outer loop
      vertex -1.43394 2.04788 2
      vertex -1.25 2.16506 -2
      vertex -1.43394 2.04788 -2
    endloop
  endfacet
  facet normal 0 0 -1
    outer loop
      vertex -1.05655 -2.26577 -2
      vertex -0.75 -2.38235 -2
      vertex -0.85505 -2.34923 -2
    endloop
  endfacet
  facet normal 0 0 -1
    outer loop
      vertex -0.75 -2.38235 -2
      vertex -1.05655 -2.26577 -2
      vertex -0.75 2.38235 -2
    endloop
  endfacet
  facet normal 0 0 -1
    outer loop
      vertex -1.05655 2.26577 -2
      vertex -0.75 2.38235 -2
      vertex -1.05655 -2.26577 -2
    endloop
  endfacet
  facet normal 0 0 -1
    outer loop
      vertex -0.75 2.38235 -2
      vertex -1.05655 2.26577 -2
      vertex -0.85505 2.34923 -2
    endloop
  endfacet
  facet normal 0 0 -1
    outer loop
      vertex -1.25 -2.16506 -2
      vertex -1.05655 2.26577 -2
      vertex -1.05655 -2.26577 -2
    endloop
  endfacet
  facet normal 0 0 -1
    outer loop
      vertex -1.25 -2.16506 -2
      vertex -1.25 2.16506 -2
      vertex -1.05655 2.26577 -2
    endloop
  endfacet
  facet normal 0 0 -1
    outer loop
      vertex -1.43394 -2.04788 -2
      vertex -1.25 2.16506 -2
      vertex -1.25 -2.16506 -2
    endloop
  endfacet
  facet normal 0 0 -1
    outer loop
      vertex -1.43394 -2.04788 -2
      vertex -1.43394 2.04788 -2
      vertex -1.25 2.16506 -2
    endloop
  endfacet
  facet normal 0 0 -1
    outer loop
      vertex -1.60697 -1.91511 -2
      vertex -1.43394 2.04788 -2
      vertex -1.43394 -2.04788 -2
    endloop
  endfacet
  facet normal 0 0 -1
    outer loop
      vertex -1.60697 -1.91511 -2
      vertex -1.60697 1.91511 -2
      vertex -1.43394 2.04788 -2
    endloop
  endfacet
  facet normal 0 0 -1
    outer loop
      vertex -1.76777 -1.76777 -2
      vertex -1.60697 1.91511 -2
      vertex -1.60697 -1.91511 -2
    endloop
  endfacet
  facet normal 0 0 -1
    outer loop
      vertex -1.76777 -1.76777 -2
      vertex -1.76777 1.76777 -2
      vertex -1.60697 1.91511 -2
    endloop
  endfacet
  facet normal 0 0 -1
    outer loop
      vertex -1.91511 -1.60697 -2
      vertex -1.76777 1.76777 -2
      vertex -1.76777 -1.76777 -2
    endloop
  endfacet
  facet normal 0 0 -1
    outer loop
      vertex -1.91511 -1.60697 -2
      vertex -1.91511 1.60697 -2
      vertex -1.76777 1.76777 -2
    endloop
  endfacet
  facet normal 0 0 -1
    outer loop
      vertex -2.04788 -1.43394 -2
      vertex -1.91511 1.60697 -2
      vertex -1.91511 -1.60697 -2
    endloop
  endfacet
  facet normal 0 0 -1
    outer loop
      vertex -2.04788 -1.43394 -2
      vertex -2.04788 1.43394 -2
      vertex -1.91511 1.60697 -2
    endloop
  endfacet
  facet normal 0 0 -1
    outer loop
      vertex -2.16506 -1.25 -2
      vertex -2.04788 1.43394 -2
      vertex -2.04788 -1.43394 -2
    endloop
  endfacet
  facet normal 0 0 -1
    outer loop
      vertex -2.16506 -1.25 -2
      vertex -2.16506 1.25 -2
      vertex -2.04788 1.43394 -2
    endloop
  endfacet
  facet normal 0 0 -1
    outer loop
      vertex -2.26577 -1.05655 -2
      vertex -2.16506 1.25 -2
      vertex -2.16506 -1.25 -2
    endloop
  endfacet
  facet normal 0 0 -1
    outer loop
      vertex -2.26577 -1.05655 -2
      vertex -2.26577 1.05655 -2
      vertex -2.16506 1.25 -2
    endloop
  endfacet
  facet normal 0 0 -1
    outer loop
      vertex -2.34923 -0.85505 -2
      vertex -2.26577 1.05655 -2
      vertex -2.26577 -1.05655 -2
    endloop
  endfacet
  facet normal 0 0 -1
    outer loop
      vertex -2.34923 -0.85505 -2
      vertex -2.34923 0.85505 -2
      vertex -2.26577 1.05655 -2
    endloop
  endfacet
  facet normal 0 0 -1
    outer loop
      vertex -2.41481 -0.647047 -2
      vertex -2.34923 0.85505 -2
      vertex -2.34923 -0.85505 -2
    endloop
  endfacet
  facet normal 0 0 -1
    outer loop
      vertex -2.41481 -0.647047 -2
      vertex -2.41481 0.647047 -2
      vertex -2.34923 0.85505 -2
    endloop
  endfacet
  facet normal 0 0 -1
    outer loop
      vertex -2.46202 -0.43412 -2
      vertex -2.41481 0.647047 -2
      vertex -2.41481 -0.647047 -2
    endloop
  endfacet
  facet normal 0 0 -1
    outer loop
      vertex -2.46202 -0.43412 -2
      vertex -2.46202 0.43412 -2
      vertex -2.41481 0.647047 -2
    endloop
  endfacet
  facet normal 0 0 -1
    outer loop
      vertex -2.49049 -0.217889 -2
      vertex -2.46202 0.43412 -2
      vertex -2.46202 -0.43412 -2
    endloop
  endfacet
  facet normal 0 0 -1
    outer loop
      vertex -2.49049 -0.217889 -2
      vertex -2.49049 0.217889 -2
      vertex -2.46202 0.43412 -2
    endloop
  endfacet
  facet normal 0 -0 -1
    outer loop
      vertex -2.49049 0.217889 -2
      vertex -2.49049 -0.217889 -2
      vertex -2.5 0 -2
    endloop
  endfacet
  facet normal 0 0 -1
    outer loop
      vertex -0.75 -2.38235 -2
      vertex 0.75 -2.38235 -2
      vertex 0.75 -4 -2
    endloop
  endfacet
  facet normal 0 0 -1
    outer loop
      vertex 0.75 -2.38235 -2
      vertex -0.75 -2.38235 -2
      vertex 0.75 2.38235 -2
    endloop
  endfacet
  facet normal 0 0 -1
    outer loop
      vertex -0.75 -2.38235 -2
      vertex 0.75 -4 -2
      vertex -0.75 -4 -2
    endloop
  endfacet
  facet normal 0 0 -1
    outer loop
      vertex -0.75 2.38235 -2
      vertex 0.75 2.38235 -2
      vertex -0.75 -2.38235 -2
    endloop
  endfacet
  facet normal 0 0 -1
    outer loop
      vertex 0.75 2.38235 -2
      vertex -0.75 2.38235 -2
      vertex 0.75 4 -2
    endloop
  endfacet
  facet normal -0 0 -1
    outer loop
      vertex 0.75 4 -2
      vertex -0.75 2.38235 -2
      vertex -0.75 4 -2
    endloop
  endfacet
  facet normal 0 0 -1
    outer loop
      vertex 2.49049 -0.217889 -2
      vertex 2.49049 0.217889 -2
      vertex 2.5 0 -2
    endloop
  endfacet
  facet normal 0 0 -1
    outer loop
      vertex 2.46202 -0.43412 -2
      vertex 2.49049 0.217889 -2
      vertex 2.49049 -0.217889 -2
    endloop
  endfacet
  facet normal 0 0 -1
    outer loop
      vertex 2.46202 -0.43412 -2
      vertex 2.46202 0.43412 -2
      vertex 2.49049 0.217889 -2
    endloop
  endfacet
  facet normal 0 0 -1
    outer loop
      vertex 2.41481 -0.647047 -2
      vertex 2.46202 0.43412 -2
      vertex 2.46202 -0.43412 -2
    endloop
  endfacet
  facet normal 0 0 -1
    outer loop
      vertex 2.41481 -0.647047 -2
      vertex 2.41481 0.647047 -2
      vertex 2.46202 0.43412 -2
    endloop
  endfacet
  facet normal 0 0 -1
    outer loop
      vertex 2.34923 -0.85505 -2
      vertex 2.41481 0.647047 -2
      vertex 2.41481 -0.647047 -2
    endloop
  endfacet
  facet normal 0 0 -1
    outer loop
      vertex 2.34923 -0.85505 -2
      vertex 2.34923 0.85505 -2
      vertex 2.41481 0.647047 -2
    endloop
  endfacet
  facet normal 0 0 -1
    outer loop
      vertex 2.26577 -1.05655 -2
      vertex 2.34923 0.85505 -2
      vertex 2.34923 -0.85505 -2
    endloop
  endfacet
  facet normal 0 0 -1
    outer loop
      vertex 2.26577 -1.05655 -2
      vertex 2.26577 1.05655 -2
      vertex 2.34923 0.85505 -2
    endloop
  endfacet
  facet normal 0 0 -1
    outer loop
      vertex 2.16506 -1.25 -2
      vertex 2.26577 1.05655 -2
      vertex 2.26577 -1.05655 -2
    endloop
  endfacet
  facet normal 0 0 -1
    outer loop
      vertex 2.16506 -1.25 -2
      vertex 2.16506 1.25 -2
      vertex 2.26577 1.05655 -2
    endloop
  endfacet
  facet normal 0 0 -1
    outer loop
      vertex 2.04788 -1.43394 -2
      vertex 2.16506 1.25 -2
      vertex 2.16506 -1.25 -2
    endloop
  endfacet
  facet normal 0 0 -1
    outer loop
      vertex 2.04788 -1.43394 -2
      vertex 2.04788 1.43394 -2
      vertex 2.16506 1.25 -2
    endloop
  endfacet
  facet normal 0 0 -1
    outer loop
      vertex 1.91511 -1.60697 -2
      vertex 2.04788 1.43394 -2
      vertex 2.04788 -1.43394 -2
    endloop
  endfacet
  facet normal 0 0 -1
    outer loop
      vertex 1.91511 -1.60697 -2
      vertex 1.91511 1.60697 -2
      vertex 2.04788 1.43394 -2
    endloop
  endfacet
  facet normal 0 0 -1
    outer loop
      vertex 1.76777 -1.76777 -2
      vertex 1.91511 1.60697 -2
      vertex 1.91511 -1.60697 -2
    endloop
  endfacet
  facet normal 0 0 -1
    outer loop
      vertex 1.76777 -1.76777 -2
      vertex 1.76777 1.76777 -2
      vertex 1.91511 1.60697 -2
    endloop
  endfacet
  facet normal 0 0 -1
    outer loop
      vertex 1.60697 -1.91511 -2
      vertex 1.76777 1.76777 -2
      vertex 1.76777 -1.76777 -2
    endloop
  endfacet
  facet normal 0 0 -1
    outer loop
      vertex 1.60697 -1.91511 -2
      vertex 1.60697 1.91511 -2
      vertex 1.76777 1.76777 -2
    endloop
  endfacet
  facet normal 0 0 -1
    outer loop
      vertex 1.43394 -2.04788 -2
      vertex 1.60697 1.91511 -2
      vertex 1.60697 -1.91511 -2
    endloop
  endfacet
  facet normal 0 0 -1
    outer loop
      vertex 1.43394 -2.04788 -2
      vertex 1.43394 2.04788 -2
      vertex 1.60697 1.91511 -2
    endloop
  endfacet
  facet normal 0 0 -1
    outer loop
      vertex 1.25 -2.16506 -2
      vertex 1.43394 2.04788 -2
      vertex 1.43394 -2.04788 -2
    endloop
  endfacet
  facet normal 0 0 -1
    outer loop
      vertex 1.25 -2.16506 -2
      vertex 1.25 2.16506 -2
      vertex 1.43394 2.04788 -2
    endloop
  endfacet
  facet normal 0 0 -1
    outer loop
      vertex 1.05655 -2.26577 -2
      vertex 1.25 2.16506 -2
      vertex 1.25 -2.16506 -2
    endloop
  endfacet
  facet normal 0 0 -1
    outer loop
      vertex 1.05655 -2.26577 -2
      vertex 1.05655 2.26577 -2
      vertex 1.25 2.16506 -2
    endloop
  endfacet
  facet normal 0 0 -1
    outer loop
      vertex 0.75 -2.38235 -2
      vertex 1.05655 -2.26577 -2
      vertex 0.85505 -2.34923 -2
    endloop
  endfacet
  facet normal -0 0 -1
    outer loop
      vertex 1.05655 -2.26577 -2
      vertex 0.75 -2.38235 -2
      vertex 1.05655 2.26577 -2
    endloop
  endfacet
  facet normal 0 0 -1
    outer loop
      vertex 0.75 2.38235 -2
      vertex 1.05655 2.26577 -2
      vertex 0.75 -2.38235 -2
    endloop
  endfacet
  facet normal 0 0 -1
    outer loop
      vertex 1.05655 2.26577 -2
      vertex 0.75 2.38235 -2
      vertex 0.85505 2.34923 -2
    endloop
  endfacet
  facet normal 0.461771 -0.886999 0
    outer loop
      vertex 1.05655 -2.26577 -2
      vertex 1.25 -2.16506 2
      vertex 1.05655 -2.26577 2
    endloop
  endfacet
  facet normal 0.461771 -0.886999 0
    outer loop
      vertex 1.25 -2.16506 2
      vertex 1.05655 -2.26577 -2
      vertex 1.25 -2.16506 -2
    endloop
  endfacet
  facet normal 0.991443 -0.130538 0
    outer loop
      vertex 2.46202 -0.43412 2
      vertex 2.49049 -0.217889 -2
      vertex 2.49049 -0.217889 2
    endloop
  endfacet
  facet normal 0.991443 -0.130538 0
    outer loop
      vertex 2.49049 -0.217889 -2
      vertex 2.46202 -0.43412 2
      vertex 2.46202 -0.43412 -2
    endloop
  endfacet
  facet normal -0.382668 -0.923886 0
    outer loop
      vertex -1.05655 -2.26577 -2
      vertex -0.85505 -2.34923 2
      vertex -1.05655 -2.26577 2
    endloop
  endfacet
  facet normal -0.382668 -0.923886 -0
    outer loop
      vertex -0.85505 -2.34923 2
      vertex -1.05655 -2.26577 -2
      vertex -0.85505 -2.34923 -2
    endloop
  endfacet
  facet normal 0.953721 0.300693 0
    outer loop
      vertex 2.41481 0.647047 2
      vertex 2.34923 0.85505 -2
      vertex 2.34923 0.85505 2
    endloop
  endfacet
  facet normal 0.953721 0.300693 0
    outer loop
      vertex 2.34923 0.85505 -2
      vertex 2.41481 0.647047 2
      vertex 2.41481 0.647047 -2
    endloop
  endfacet
  facet normal 0.537291 0.843397 -0
    outer loop
      vertex 1.43394 2.04788 -2
      vertex 1.25 2.16506 2
      vertex 1.43394 2.04788 2
    endloop
  endfacet
  facet normal 0.537291 0.843397 0
    outer loop
      vertex 1.25 2.16506 2
      vertex 1.43394 2.04788 -2
      vertex 1.25 2.16506 -2
    endloop
  endfacet
  facet normal 0.999049 -0.0436046 0
    outer loop
      vertex 2.49049 -0.217889 2
      vertex 2.5 0 -2
      vertex 2.5 0 2
    endloop
  endfacet
  facet normal 0.999049 -0.0436046 0
    outer loop
      vertex 2.5 0 -2
      vertex 2.49049 -0.217889 2
      vertex 2.49049 -0.217889 -2
    endloop
  endfacet
  facet normal 0.886999 -0.461771 0
    outer loop
      vertex 2.16506 -1.25 2
      vertex 2.26577 -1.05655 -2
      vertex 2.26577 -1.05655 2
    endloop
  endfacet
  facet normal 0.886999 -0.461771 0
    outer loop
      vertex 2.26577 -1.05655 -2
      vertex 2.16506 -1.25 2
      vertex 2.16506 -1.25 -2
    endloop
  endfacet
  facet normal 0.382668 0.923886 -0
    outer loop
      vertex 1.05655 2.26577 -2
      vertex 0.85505 2.34923 2
      vertex 1.05655 2.26577 2
    endloop
  endfacet
  facet normal 0.382668 0.923886 0
    outer loop
      vertex 0.85505 2.34923 2
      vertex 1.05655 2.26577 -2
      vertex 0.85505 2.34923 -2
    endloop
  endfacet
  facet normal 0.991443 0.130538 0
    outer loop
      vertex 2.49049 0.217889 2
      vertex 2.46202 0.43412 -2
      vertex 2.46202 0.43412 2
    endloop
  endfacet
  facet normal 0.991443 0.130538 0
    outer loop
      vertex 2.46202 0.43412 -2
      vertex 2.49049 0.217889 2
      vertex 2.49049 0.217889 -2
    endloop
  endfacet
  facet normal -0.60876 0.793355 0
    outer loop
      vertex -1.43394 2.04788 -2
      vertex -1.60697 1.91511 2
      vertex -1.43394 2.04788 2
    endloop
  endfacet
  facet normal -0.60876 0.793355 0
    outer loop
      vertex -1.60697 1.91511 2
      vertex -1.43394 2.04788 -2
      vertex -1.60697 1.91511 -2
    endloop
  endfacet
  facet normal 0.923886 -0.382668 0
    outer loop
      vertex 2.26577 -1.05655 2
      vertex 2.34923 -0.85505 -2
      vertex 2.34923 -0.85505 2
    endloop
  endfacet
  facet normal 0.923886 -0.382668 0
    outer loop
      vertex 2.34923 -0.85505 -2
      vertex 2.26577 -1.05655 2
      vertex 2.26577 -1.05655 -2
    endloop
  endfacet
  facet normal 0.999049 0.0436046 0
    outer loop
      vertex 2.5 0 2
      vertex 2.49049 0.217889 -2
      vertex 2.49049 0.217889 2
    endloop
  endfacet
  facet normal 0.999049 0.0436046 0
    outer loop
      vertex 2.49049 0.217889 -2
      vertex 2.5 0 2
      vertex 2.5 0 -2
    endloop
  endfacet
  facet normal 0.537291 -0.843397 0
    outer loop
      vertex 1.25 -2.16506 -2
      vertex 1.43394 -2.04788 2
      vertex 1.25 -2.16506 2
    endloop
  endfacet
  facet normal 0.537291 -0.843397 0
    outer loop
      vertex 1.43394 -2.04788 2
      vertex 1.25 -2.16506 -2
      vertex 1.43394 -2.04788 -2
    endloop
  endfacet
  facet normal 0.737291 -0.675575 0
    outer loop
      vertex 1.76777 -1.76777 2
      vertex 1.91511 -1.60697 -2
      vertex 1.91511 -1.60697 2
    endloop
  endfacet
  facet normal 0.737291 -0.675575 0
    outer loop
      vertex 1.91511 -1.60697 -2
      vertex 1.76777 -1.76777 2
      vertex 1.76777 -1.76777 -2
    endloop
  endfacet
  facet normal 0.843397 -0.537291 0
    outer loop
      vertex 2.04788 -1.43394 2
      vertex 2.16506 -1.25 -2
      vertex 2.16506 -1.25 2
    endloop
  endfacet
  facet normal 0.843397 -0.537291 0
    outer loop
      vertex 2.16506 -1.25 -2
      vertex 2.04788 -1.43394 2
      vertex 2.04788 -1.43394 -2
    endloop
  endfacet
  facet normal -0.60876 -0.793355 0
    outer loop
      vertex -1.60697 -1.91511 -2
      vertex -1.43394 -2.04788 2
      vertex -1.60697 -1.91511 2
    endloop
  endfacet
  facet normal -0.60876 -0.793355 -0
    outer loop
      vertex -1.43394 -2.04788 2
      vertex -1.60697 -1.91511 -2
      vertex -1.43394 -2.04788 -2
    endloop
  endfacet
  facet normal 0.793355 -0.60876 0
    outer loop
      vertex 1.91511 -1.60697 2
      vertex 2.04788 -1.43394 -2
      vertex 2.04788 -1.43394 2
    endloop
  endfacet
  facet normal 0.793355 -0.60876 0
    outer loop
      vertex 2.04788 -1.43394 -2
      vertex 1.91511 -1.60697 2
      vertex 1.91511 -1.60697 -2
    endloop
  endfacet
  facet normal 0.976291 0.216462 0
    outer loop
      vertex 2.46202 0.43412 2
      vertex 2.41481 0.647047 -2
      vertex 2.41481 0.647047 2
    endloop
  endfacet
  facet normal 0.976291 0.216462 0
    outer loop
      vertex 2.41481 0.647047 -2
      vertex 2.46202 0.43412 2
      vertex 2.46202 0.43412 -2
    endloop
  endfacet
  facet normal 0.60876 -0.793355 0
    outer loop
      vertex 1.43394 -2.04788 -2
      vertex 1.60697 -1.91511 2
      vertex 1.43394 -2.04788 2
    endloop
  endfacet
  facet normal 0.60876 -0.793355 0
    outer loop
      vertex 1.60697 -1.91511 2
      vertex 1.43394 -2.04788 -2
      vertex 1.60697 -1.91511 -2
    endloop
  endfacet
  facet normal -0.976291 0.216462 0
    outer loop
      vertex -2.46202 0.43412 -2
      vertex -2.41481 0.647047 2
      vertex -2.41481 0.647047 -2
    endloop
  endfacet
  facet normal -0.976291 0.216462 0
    outer loop
      vertex -2.41481 0.647047 2
      vertex -2.46202 0.43412 -2
      vertex -2.46202 0.43412 2
    endloop
  endfacet
  facet normal -0.991443 -0.130538 0
    outer loop
      vertex -2.46202 -0.43412 -2
      vertex -2.49049 -0.217889 2
      vertex -2.49049 -0.217889 -2
    endloop
  endfacet
  facet normal -0.991443 -0.130538 0
    outer loop
      vertex -2.49049 -0.217889 2
      vertex -2.46202 -0.43412 -2
      vertex -2.46202 -0.43412 2
    endloop
  endfacet
  facet normal -0.991443 0.130538 0
    outer loop
      vertex -2.49049 0.217889 -2
      vertex -2.46202 0.43412 2
      vertex -2.46202 0.43412 -2
    endloop
  endfacet
  facet normal -0.991443 0.130538 0
    outer loop
      vertex -2.46202 0.43412 2
      vertex -2.49049 0.217889 -2
      vertex -2.49049 0.217889 2
    endloop
  endfacet
  facet normal -0.953721 0.300693 0
    outer loop
      vertex -2.41481 0.647047 -2
      vertex -2.34923 0.85505 2
      vertex -2.34923 0.85505 -2
    endloop
  endfacet
  facet normal -0.953721 0.300693 0
    outer loop
      vertex -2.34923 0.85505 2
      vertex -2.41481 0.647047 -2
      vertex -2.41481 0.647047 2
    endloop
  endfacet
  facet normal 0.675575 0.737291 -0
    outer loop
      vertex 1.76777 1.76777 -2
      vertex 1.60697 1.91511 2
      vertex 1.76777 1.76777 2
    endloop
  endfacet
  facet normal 0.675575 0.737291 0
    outer loop
      vertex 1.60697 1.91511 2
      vertex 1.76777 1.76777 -2
      vertex 1.60697 1.91511 -2
    endloop
  endfacet
  facet normal 0.886999 0.461771 0
    outer loop
      vertex 2.26577 1.05655 2
      vertex 2.16506 1.25 -2
      vertex 2.16506 1.25 2
    endloop
  endfacet
  facet normal 0.886999 0.461771 0
    outer loop
      vertex 2.16506 1.25 -2
      vertex 2.26577 1.05655 2
      vertex 2.26577 1.05655 -2
    endloop
  endfacet
  facet normal -0.300688 0.953723 0
    outer loop
      vertex -0.75 2.38235 -2
      vertex -0.85505 2.34923 2
      vertex -0.75 2.38235 2
    endloop
  endfacet
  facet normal -0.300688 0.953723 0
    outer loop
      vertex -0.85505 2.34923 2
      vertex -0.75 2.38235 -2
      vertex -0.85505 2.34923 -2
    endloop
  endfacet
  facet normal 0.461771 0.886999 -0
    outer loop
      vertex 1.25 2.16506 -2
      vertex 1.05655 2.26577 2
      vertex 1.25 2.16506 2
    endloop
  endfacet
  facet normal 0.461771 0.886999 0
    outer loop
      vertex 1.05655 2.26577 2
      vertex 1.25 2.16506 -2
      vertex 1.05655 2.26577 -2
    endloop
  endfacet
  facet normal 0.60876 0.793355 -0
    outer loop
      vertex 1.60697 1.91511 -2
      vertex 1.43394 2.04788 2
      vertex 1.60697 1.91511 2
    endloop
  endfacet
  facet normal 0.60876 0.793355 0
    outer loop
      vertex 1.43394 2.04788 2
      vertex 1.60697 1.91511 -2
      vertex 1.43394 2.04788 -2
    endloop
  endfacet
  facet normal 0.953721 -0.300693 0
    outer loop
      vertex 2.34923 -0.85505 2
      vertex 2.41481 -0.647047 -2
      vertex 2.41481 -0.647047 2
    endloop
  endfacet
  facet normal 0.953721 -0.300693 0
    outer loop
      vertex 2.41481 -0.647047 -2
      vertex 2.34923 -0.85505 2
      vertex 2.34923 -0.85505 -2
    endloop
  endfacet
  facet normal -0.461771 -0.886999 0
    outer loop
      vertex -1.25 -2.16506 -2
      vertex -1.05655 -2.26577 2
      vertex -1.25 -2.16506 2
    endloop
  endfacet
  facet normal -0.461771 -0.886999 -0
    outer loop
      vertex -1.05655 -2.26577 2
      vertex -1.25 -2.16506 -2
      vertex -1.05655 -2.26577 -2
    endloop
  endfacet
  facet normal 0.737291 0.675575 0
    outer loop
      vertex 1.91511 1.60697 2
      vertex 1.76777 1.76777 -2
      vertex 1.76777 1.76777 2
    endloop
  endfacet
  facet normal 0.737291 0.675575 0
    outer loop
      vertex 1.76777 1.76777 -2
      vertex 1.91511 1.60697 2
      vertex 1.91511 1.60697 -2
    endloop
  endfacet
  facet normal -0.843397 0.537291 0
    outer loop
      vertex -2.16506 1.25 -2
      vertex -2.04788 1.43394 2
      vertex -2.04788 1.43394 -2
    endloop
  endfacet
  facet normal -0.843397 0.537291 0
    outer loop
      vertex -2.04788 1.43394 2
      vertex -2.16506 1.25 -2
      vertex -2.16506 1.25 2
    endloop
  endfacet
  facet normal 0.923886 0.382668 0
    outer loop
      vertex 2.34923 0.85505 2
      vertex 2.26577 1.05655 -2
      vertex 2.26577 1.05655 2
    endloop
  endfacet
  facet normal 0.923886 0.382668 0
    outer loop
      vertex 2.26577 1.05655 -2
      vertex 2.34923 0.85505 2
      vertex 2.34923 0.85505 -2
    endloop
  endfacet
  facet normal 0.843397 0.537291 0
    outer loop
      vertex 2.16506 1.25 2
      vertex 2.04788 1.43394 -2
      vertex 2.04788 1.43394 2
    endloop
  endfacet
  facet normal 0.843397 0.537291 0
    outer loop
      vertex 2.04788 1.43394 -2
      vertex 2.16506 1.25 2
      vertex 2.16506 1.25 -2
    endloop
  endfacet
  facet normal -0.461771 0.886999 0
    outer loop
      vertex -1.05655 2.26577 -2
      vertex -1.25 2.16506 2
      vertex -1.05655 2.26577 2
    endloop
  endfacet
  facet normal -0.461771 0.886999 0
    outer loop
      vertex -1.25 2.16506 2
      vertex -1.05655 2.26577 -2
      vertex -1.25 2.16506 -2
    endloop
  endfacet
  facet normal -0.675575 0.737291 0
    outer loop
      vertex -1.60697 1.91511 -2
      vertex -1.76777 1.76777 2
      vertex -1.60697 1.91511 2
    endloop
  endfacet
  facet normal -0.675575 0.737291 0
    outer loop
      vertex -1.76777 1.76777 2
      vertex -1.60697 1.91511 -2
      vertex -1.76777 1.76777 -2
    endloop
  endfacet
  facet normal -0.737291 -0.675575 0
    outer loop
      vertex -1.76777 -1.76777 -2
      vertex -1.91511 -1.60697 2
      vertex -1.91511 -1.60697 -2
    endloop
  endfacet
  facet normal -0.737291 -0.675575 0
    outer loop
      vertex -1.91511 -1.60697 2
      vertex -1.76777 -1.76777 -2
      vertex -1.76777 -1.76777 2
    endloop
  endfacet
  facet normal -0.793355 -0.60876 0
    outer loop
      vertex -1.91511 -1.60697 -2
      vertex -2.04788 -1.43394 2
      vertex -2.04788 -1.43394 -2
    endloop
  endfacet
  facet normal -0.793355 -0.60876 0
    outer loop
      vertex -2.04788 -1.43394 2
      vertex -1.91511 -1.60697 -2
      vertex -1.91511 -1.60697 2
    endloop
  endfacet
  facet normal -0.976291 -0.216462 0
    outer loop
      vertex -2.41481 -0.647047 -2
      vertex -2.46202 -0.43412 2
      vertex -2.46202 -0.43412 -2
    endloop
  endfacet
  facet normal -0.976291 -0.216462 0
    outer loop
      vertex -2.46202 -0.43412 2
      vertex -2.41481 -0.647047 -2
      vertex -2.41481 -0.647047 2
    endloop
  endfacet
  facet normal -0.382668 0.923886 0
    outer loop
      vertex -0.85505 2.34923 -2
      vertex -1.05655 2.26577 2
      vertex -0.85505 2.34923 2
    endloop
  endfacet
  facet normal -0.382668 0.923886 0
    outer loop
      vertex -1.05655 2.26577 2
      vertex -0.85505 2.34923 -2
      vertex -1.05655 2.26577 -2
    endloop
  endfacet
  facet normal 0.793355 0.60876 0
    outer loop
      vertex 2.04788 1.43394 2
      vertex 1.91511 1.60697 -2
      vertex 1.91511 1.60697 2
    endloop
  endfacet
  facet normal 0.793355 0.60876 0
    outer loop
      vertex 1.91511 1.60697 -2
      vertex 2.04788 1.43394 2
      vertex 2.04788 1.43394 -2
    endloop
  endfacet
  facet normal -0.793355 0.60876 0
    outer loop
      vertex -2.04788 1.43394 -2
      vertex -1.91511 1.60697 2
      vertex -1.91511 1.60697 -2
    endloop
  endfacet
  facet normal -0.793355 0.60876 0
    outer loop
      vertex -1.91511 1.60697 2
      vertex -2.04788 1.43394 -2
      vertex -2.04788 1.43394 2
    endloop
  endfacet
  facet normal -0.886999 -0.461771 0
    outer loop
      vertex -2.16506 -1.25 -2
      vertex -2.26577 -1.05655 2
      vertex -2.26577 -1.05655 -2
    endloop
  endfacet
  facet normal -0.886999 -0.461771 0
    outer loop
      vertex -2.26577 -1.05655 2
      vertex -2.16506 -1.25 -2
      vertex -2.16506 -1.25 2
    endloop
  endfacet
  facet normal -0.999049 0.0436046 0
    outer loop
      vertex -2.5 0 -2
      vertex -2.49049 0.217889 2
      vertex -2.49049 0.217889 -2
    endloop
  endfacet
  facet normal -0.999049 0.0436046 0
    outer loop
      vertex -2.49049 0.217889 2
      vertex -2.5 0 -2
      vertex -2.5 0 2
    endloop
  endfacet
  facet normal 0.300688 -0.953723 0
    outer loop
      vertex 0.75 -2.38235 -2
      vertex 0.85505 -2.34923 2
      vertex 0.75 -2.38235 2
    endloop
  endfacet
  facet normal 0.300688 -0.953723 0
    outer loop
      vertex 0.85505 -2.34923 2
      vertex 0.75 -2.38235 -2
      vertex 0.85505 -2.34923 -2
    endloop
  endfacet
  facet normal 0.382668 -0.923886 0
    outer loop
      vertex 0.85505 -2.34923 -2
      vertex 1.05655 -2.26577 2
      vertex 0.85505 -2.34923 2
    endloop
  endfacet
  facet normal 0.382668 -0.923886 0
    outer loop
      vertex 1.05655 -2.26577 2
      vertex 0.85505 -2.34923 -2
      vertex 1.05655 -2.26577 -2
    endloop
  endfacet
  facet normal -0.537291 -0.843397 0
    outer loop
      vertex -1.43394 -2.04788 -2
      vertex -1.25 -2.16506 2
      vertex -1.43394 -2.04788 2
    endloop
  endfacet
  facet normal -0.537291 -0.843397 -0
    outer loop
      vertex -1.25 -2.16506 2
      vertex -1.43394 -2.04788 -2
      vertex -1.25 -2.16506 -2
    endloop
  endfacet
  facet normal -0.886999 0.461771 0
    outer loop
      vertex -2.26577 1.05655 -2
      vertex -2.16506 1.25 2
      vertex -2.16506 1.25 -2
    endloop
  endfacet
  facet normal -0.886999 0.461771 0
    outer loop
      vertex -2.16506 1.25 2
      vertex -2.26577 1.05655 -2
      vertex -2.26577 1.05655 2
    endloop
  endfacet
  facet normal -0.923886 -0.382668 0
    outer loop
      vertex -2.26577 -1.05655 -2
      vertex -2.34923 -0.85505 2
      vertex -2.34923 -0.85505 -2
    endloop
  endfacet
  facet normal -0.923886 -0.382668 0
    outer loop
      vertex -2.34923 -0.85505 2
      vertex -2.26577 -1.05655 -2
      vertex -2.26577 -1.05655 2
    endloop
  endfacet
  facet normal 0.300688 0.953723 -0
    outer loop
      vertex 0.85505 2.34923 -2
      vertex 0.75 2.38235 2
      vertex 0.85505 2.34923 2
    endloop
  endfacet
  facet normal 0.300688 0.953723 0
    outer loop
      vertex 0.75 2.38235 2
      vertex 0.85505 2.34923 -2
      vertex 0.75 2.38235 -2
    endloop
  endfacet
  facet normal -0.923886 0.382668 0
    outer loop
      vertex -2.34923 0.85505 -2
      vertex -2.26577 1.05655 2
      vertex -2.26577 1.05655 -2
    endloop
  endfacet
  facet normal -0.923886 0.382668 0
    outer loop
      vertex -2.26577 1.05655 2
      vertex -2.34923 0.85505 -2
      vertex -2.34923 0.85505 2
    endloop
  endfacet
  facet normal -0.675575 -0.737291 0
    outer loop
      vertex -1.76777 -1.76777 -2
      vertex -1.60697 -1.91511 2
      vertex -1.76777 -1.76777 2
    endloop
  endfacet
  facet normal -0.675575 -0.737291 -0
    outer loop
      vertex -1.60697 -1.91511 2
      vertex -1.76777 -1.76777 -2
      vertex -1.60697 -1.91511 -2
    endloop
  endfacet
  facet normal -0.737291 0.675575 0
    outer loop
      vertex -1.91511 1.60697 -2
      vertex -1.76777 1.76777 2
      vertex -1.76777 1.76777 -2
    endloop
  endfacet
  facet normal -0.737291 0.675575 0
    outer loop
      vertex -1.76777 1.76777 2
      vertex -1.91511 1.60697 -2
      vertex -1.91511 1.60697 2
    endloop
  endfacet
  facet normal -0.953721 -0.300693 0
    outer loop
      vertex -2.34923 -0.85505 -2
      vertex -2.41481 -0.647047 2
      vertex -2.41481 -0.647047 -2
    endloop
  endfacet
  facet normal -0.953721 -0.300693 0
    outer loop
      vertex -2.41481 -0.647047 2
      vertex -2.34923 -0.85505 -2
      vertex -2.34923 -0.85505 2
    endloop
  endfacet
  facet normal 0.675575 -0.737291 0
    outer loop
      vertex 1.60697 -1.91511 -2
      vertex 1.76777 -1.76777 2
      vertex 1.60697 -1.91511 2
    endloop
  endfacet
  facet normal 0.675575 -0.737291 0
    outer loop
      vertex 1.76777 -1.76777 2
      vertex 1.60697 -1.91511 -2
      vertex 1.76777 -1.76777 -2
    endloop
  endfacet
  facet normal 0 0 1
    outer loop
      vertex -1.05655 2.26577 2
      vertex -0.75 2.38235 2
      vertex -0.85505 2.34923 2
    endloop
  endfacet
  facet normal 0 0 1
    outer loop
      vertex -0.75 2.38235 2
      vertex -1.05655 2.26577 2
      vertex -0.75 -2.38235 2
    endloop
  endfacet
  facet normal -0 0 1
    outer loop
      vertex -1.05655 -2.26577 2
      vertex -0.75 -2.38235 2
      vertex -1.05655 2.26577 2
    endloop
  endfacet
  facet normal 0 0 1
    outer loop
      vertex -0.75 -2.38235 2
      vertex -1.05655 -2.26577 2
      vertex -0.85505 -2.34923 2
    endloop
  endfacet
  facet normal -0 0 1
    outer loop
      vertex -1.25 2.16506 2
      vertex -1.05655 -2.26577 2
      vertex -1.05655 2.26577 2
    endloop
  endfacet
  facet normal 0 0 1
    outer loop
      vertex -1.25 2.16506 2
      vertex -1.25 -2.16506 2
      vertex -1.05655 -2.26577 2
    endloop
  endfacet
  facet normal -0 0 1
    outer loop
      vertex -1.43394 2.04788 2
      vertex -1.25 -2.16506 2
      vertex -1.25 2.16506 2
    endloop
  endfacet
  facet normal 0 0 1
    outer loop
      vertex -1.43394 2.04788 2
      vertex -1.43394 -2.04788 2
      vertex -1.25 -2.16506 2
    endloop
  endfacet
  facet normal -0 0 1
    outer loop
      vertex -1.60697 1.91511 2
      vertex -1.43394 -2.04788 2
      vertex -1.43394 2.04788 2
    endloop
  endfacet
  facet normal 0 0 1
    outer loop
      vertex -1.60697 1.91511 2
      vertex -1.60697 -1.91511 2
      vertex -1.43394 -2.04788 2
    endloop
  endfacet
  facet normal -0 0 1
    outer loop
      vertex -1.76777 1.76777 2
      vertex -1.60697 -1.91511 2
      vertex -1.60697 1.91511 2
    endloop
  endfacet
  facet normal 0 0 1
    outer loop
      vertex -1.76777 1.76777 2
      vertex -1.76777 -1.76777 2
      vertex -1.60697 -1.91511 2
    endloop
  endfacet
  facet normal -0 0 1
    outer loop
      vertex -1.91511 1.60697 2
      vertex -1.76777 -1.76777 2
      vertex -1.76777 1.76777 2
    endloop
  endfacet
  facet normal 0 0 1
    outer loop
      vertex -1.91511 1.60697 2
      vertex -1.91511 -1.60697 2
      vertex -1.76777 -1.76777 2
    endloop
  endfacet
  facet normal -0 0 1
    outer loop
      vertex -2.04788 1.43394 2
      vertex -1.91511 -1.60697 2
      vertex -1.91511 1.60697 2
    endloop
  endfacet
  facet normal 0 0 1
    outer loop
      vertex -2.04788 1.43394 2
      vertex -2.04788 -1.43394 2
      vertex -1.91511 -1.60697 2
    endloop
  endfacet
  facet normal -0 0 1
    outer loop
      vertex -2.16506 1.25 2
      vertex -2.04788 -1.43394 2
      vertex -2.04788 1.43394 2
    endloop
  endfacet
  facet normal 0 0 1
    outer loop
      vertex -2.16506 1.25 2
      vertex -2.16506 -1.25 2
      vertex -2.04788 -1.43394 2
    endloop
  endfacet
  facet normal -0 0 1
    outer loop
      vertex -2.26577 1.05655 2
      vertex -2.16506 -1.25 2
      vertex -2.16506 1.25 2
    endloop
  endfacet
  facet normal 0 0 1
    outer loop
      vertex -2.26577 1.05655 2
      vertex -2.26577 -1.05655 2
      vertex -2.16506 -1.25 2
    endloop
  endfacet
  facet normal -0 0 1
    outer loop
      vertex -2.34923 0.85505 2
      vertex -2.26577 -1.05655 2
      vertex -2.26577 1.05655 2
    endloop
  endfacet
  facet normal 0 0 1
    outer loop
      vertex -2.34923 0.85505 2
      vertex -2.34923 -0.85505 2
      vertex -2.26577 -1.05655 2
    endloop
  endfacet
  facet normal -0 0 1
    outer loop
      vertex -2.41481 0.647047 2
      vertex -2.34923 -0.85505 2
      vertex -2.34923 0.85505 2
    endloop
  endfacet
  facet normal 0 0 1
    outer loop
      vertex -2.41481 0.647047 2
      vertex -2.41481 -0.647047 2
      vertex -2.34923 -0.85505 2
    endloop
  endfacet
  facet normal -0 0 1
    outer loop
      vertex -2.46202 0.43412 2
      vertex -2.41481 -0.647047 2
      vertex -2.41481 0.647047 2
    endloop
  endfacet
  facet normal 0 0 1
    outer loop
      vertex -2.46202 0.43412 2
      vertex -2.46202 -0.43412 2
      vertex -2.41481 -0.647047 2
    endloop
  endfacet
  facet normal -0 0 1
    outer loop
      vertex -2.49049 0.217889 2
      vertex -2.46202 -0.43412 2
      vertex -2.46202 0.43412 2
    endloop
  endfacet
  facet normal 0 0 1
    outer loop
      vertex -2.49049 0.217889 2
      vertex -2.49049 -0.217889 2
      vertex -2.46202 -0.43412 2
    endloop
  endfacet
  facet normal 0 -0 1
    outer loop
      vertex -2.49049 -0.217889 2
      vertex -2.49049 0.217889 2
      vertex -2.5 0 2
    endloop
  endfacet
  facet normal 0 0 1
    outer loop
      vertex -0.75 2.38235 2
      vertex 0.75 2.38235 2
      vertex 0.75 4 2
    endloop
  endfacet
  facet normal 0 0 1
    outer loop
      vertex 0.75 2.38235 2
      vertex -0.75 2.38235 2
      vertex 0.75 -2.38235 2
    endloop
  endfacet
  facet normal 0 0 1
    outer loop
      vertex -0.75 2.38235 2
      vertex 0.75 4 2
      vertex -0.75 4 2
    endloop
  endfacet
  facet normal 0 0 1
    outer loop
      vertex -0.75 -2.38235 2
      vertex 0.75 -2.38235 2
      vertex -0.75 2.38235 2
    endloop
  endfacet
  facet normal 0 0 1
    outer loop
      vertex 0.75 -2.38235 2
      vertex -0.75 -2.38235 2
      vertex 0.75 -4 2
    endloop
  endfacet
  facet normal 0 0 1
    outer loop
      vertex 0.75 -4 2
      vertex -0.75 -2.38235 2
      vertex -0.75 -4 2
    endloop
  endfacet
  facet normal 0 0 1
    outer loop
      vertex 2.49049 0.217889 2
      vertex 2.49049 -0.217889 2
      vertex 2.5 0 2
    endloop
  endfacet
  facet normal 0 0 1
    outer loop
      vertex 2.46202 0.43412 2
      vertex 2.49049 -0.217889 2
      vertex 2.49049 0.217889 2
    endloop
  endfacet
  facet normal 0 0 1
    outer loop
      vertex 2.46202 0.43412 2
      vertex 2.46202 -0.43412 2
      vertex 2.49049 -0.217889 2
    endloop
  endfacet
  facet normal 0 0 1
    outer loop
      vertex 2.41481 0.647047 2
      vertex 2.46202 -0.43412 2
      vertex 2.46202 0.43412 2
    endloop
  endfacet
  facet normal 0 0 1
    outer loop
      vertex 2.41481 0.647047 2
      vertex 2.41481 -0.647047 2
      vertex 2.46202 -0.43412 2
    endloop
  endfacet
  facet normal 0 0 1
    outer loop
      vertex 2.34923 0.85505 2
      vertex 2.41481 -0.647047 2
      vertex 2.41481 0.647047 2
    endloop
  endfacet
  facet normal 0 0 1
    outer loop
      vertex 2.34923 0.85505 2
      vertex 2.34923 -0.85505 2
      vertex 2.41481 -0.647047 2
    endloop
  endfacet
  facet normal 0 0 1
    outer loop
      vertex 2.26577 1.05655 2
      vertex 2.34923 -0.85505 2
      vertex 2.34923 0.85505 2
    endloop
  endfacet
  facet normal 0 0 1
    outer loop
      vertex 2.26577 1.05655 2
      vertex 2.26577 -1.05655 2
      vertex 2.34923 -0.85505 2
    endloop
  endfacet
  facet normal 0 0 1
    outer loop
      vertex 2.16506 1.25 2
      vertex 2.26577 -1.05655 2
      vertex 2.26577 1.05655 2
    endloop
  endfacet
  facet normal 0 0 1
    outer loop
      vertex 2.16506 1.25 2
      vertex 2.16506 -1.25 2
      vertex 2.26577 -1.05655 2
    endloop
  endfacet
  facet normal 0 0 1
    outer loop
      vertex 2.04788 1.43394 2
      vertex 2.16506 -1.25 2
      vertex 2.16506 1.25 2
    endloop
  endfacet
  facet normal 0 0 1
    outer loop
      vertex 2.04788 1.43394 2
      vertex 2.04788 -1.43394 2
      vertex 2.16506 -1.25 2
    endloop
  endfacet
  facet normal 0 0 1
    outer loop
      vertex 1.91511 1.60697 2
      vertex 2.04788 -1.43394 2
      vertex 2.04788 1.43394 2
    endloop
  endfacet
  facet normal 0 0 1
    outer loop
      vertex 1.91511 1.60697 2
      vertex 1.91511 -1.60697 2
      vertex 2.04788 -1.43394 2
    endloop
  endfacet
  facet normal 0 0 1
    outer loop
      vertex 1.76777 1.76777 2
      vertex 1.91511 -1.60697 2
      vertex 1.91511 1.60697 2
    endloop
  endfacet
  facet normal 0 0 1
    outer loop
      vertex 1.76777 1.76777 2
      vertex 1.76777 -1.76777 2
      vertex 1.91511 -1.60697 2
    endloop
  endfacet
  facet normal 0 0 1
    outer loop
      vertex 1.60697 1.91511 2
      vertex 1.76777 -1.76777 2
      vertex 1.76777 1.76777 2
    endloop
  endfacet
  facet normal 0 0 1
    outer loop
      vertex 1.60697 1.91511 2
      vertex 1.60697 -1.91511 2
      vertex 1.76777 -1.76777 2
    endloop
  endfacet
  facet normal 0 0 1
    outer loop
      vertex 1.43394 2.04788 2
      vertex 1.60697 -1.91511 2
      vertex 1.60697 1.91511 2
    endloop
  endfacet
  facet normal 0 0 1
    outer loop
      vertex 1.43394 2.04788 2
      vertex 1.43394 -2.04788 2
      vertex 1.60697 -1.91511 2
    endloop
  endfacet
  facet normal 0 0 1
    outer loop
      vertex 1.25 2.16506 2
      vertex 1.43394 -2.04788 2
      vertex 1.43394 2.04788 2
    endloop
  endfacet
  facet normal 0 0 1
    outer loop
      vertex 1.25 2.16506 2
      vertex 1.25 -2.16506 2
      vertex 1.43394 -2.04788 2
    endloop
  endfacet
  facet normal 0 0 1
    outer loop
      vertex 1.05655 2.26577 2
      vertex 1.25 -2.16506 2
      vertex 1.25 2.16506 2
    endloop
  endfacet
  facet normal 0 0 1
    outer loop
      vertex 1.05655 2.26577 2
      vertex 1.05655 -2.26577 2
      vertex 1.25 -2.16506 2
    endloop
  endfacet
  facet normal 0 0 1
    outer loop
      vertex 0.75 2.38235 2
      vertex 1.05655 2.26577 2
      vertex 0.85505 2.34923 2
    endloop
  endfacet
  facet normal 0 0 1
    outer loop
      vertex 1.05655 2.26577 2
      vertex 0.75 2.38235 2
      vertex 1.05655 -2.26577 2
    endloop
  endfacet
  facet normal 0 0 1
    outer loop
      vertex 0.75 -2.38235 2
      vertex 1.05655 -2.26577 2
      vertex 0.75 2.38235 2
    endloop
  endfacet
  facet normal 0 0 1
    outer loop
      vertex 1.05655 -2.26577 2
      vertex 0.75 -2.38235 2
      vertex 0.85505 -2.34923 2
    endloop
  endfacet
  facet normal 1 0 0
    outer loop
      vertex 0.75 4 2
      vertex 0.75 3.65451 0.293892
      vertex 0.75 4 -2
    endloop
  endfacet
  facet normal 1 0 0
    outer loop
      vertex 0.75 4 2
      vertex 0.75 3.09549 0.475528
      vertex 0.75 3.65451 0.293892
    endloop
  endfacet
  facet normal 1 -0 0
    outer loop
      vertex 0.75 2.38235 2
      vertex 0.75 3.09549 0.475528
      vertex 0.75 4 2
    endloop
  endfacet
  facet normal 1 0 0
    outer loop
      vertex 0.75 3.09549 0.475528
      vertex 0.75 2.38235 2
      vertex 0.75 2.75 0
    endloop
  endfacet
  facet normal 1 -0 0
    outer loop
      vertex 0.75 3.65451 -0.293892
      vertex 0.75 4 -2
      vertex 0.75 3.65451 0.293892
    endloop
  endfacet
  facet normal 1 -0 0
    outer loop
      vertex 0.75 3.09549 -0.475528
      vertex 0.75 4 -2
      vertex 0.75 3.65451 -0.293892
    endloop
  endfacet
  facet normal 1 0 0
    outer loop
      vertex 0.75 2.38235 -2
      vertex 0.75 3.09549 -0.475528
      vertex 0.75 2.75 0
    endloop
  endfacet
  facet normal 1 0 0
    outer loop
      vertex 0.75 3.09549 -0.475528
      vertex 0.75 2.38235 -2
      vertex 0.75 4 -2
    endloop
  endfacet
  facet normal 1 0 0
    outer loop
      vertex 0.75 2.38235 -2
      vertex 0.75 2.75 0
      vertex 0.75 2.38235 2
    endloop
  endfacet
  facet normal 1 0 0
    outer loop
      vertex 0.75 -2.38235 2
      vertex 0.75 -2.84549 0.293892
      vertex 0.75 -2.38235 -2
    endloop
  endfacet
  facet normal 1 0 0
    outer loop
      vertex 0.75 -2.38235 2
      vertex 0.75 -3.40451 0.475528
      vertex 0.75 -2.84549 0.293892
    endloop
  endfacet
  facet normal 1 -0 0
    outer loop
      vertex 0.75 -4 2
      vertex 0.75 -3.40451 0.475528
      vertex 0.75 -2.38235 2
    endloop
  endfacet
  facet normal 1 0 0
    outer loop
      vertex 0.75 -3.40451 0.475528
      vertex 0.75 -4 2
      vertex 0.75 -3.75 0
    endloop
  endfacet
  facet normal 1 -0 0
    outer loop
      vertex 0.75 -2.84549 -0.293892
      vertex 0.75 -2.38235 -2
      vertex 0.75 -2.84549 0.293892
    endloop
  endfacet
  facet normal 1 -0 0
    outer loop
      vertex 0.75 -3.40451 -0.475528
      vertex 0.75 -2.38235 -2
      vertex 0.75 -2.84549 -0.293892
    endloop
  endfacet
  facet normal 1 0 0
    outer loop
      vertex 0.75 -4 -2
      vertex 0.75 -3.40451 -0.475528
      vertex 0.75 -3.75 0
    endloop
  endfacet
  facet normal 1 0 0
    outer loop
      vertex 0.75 -3.40451 -0.475528
      vertex 0.75 -4 -2
      vertex 0.75 -2.38235 -2
    endloop
  endfacet
  facet normal 1 0 0
    outer loop
      vertex 0.75 -4 -2
      vertex 0.75 -3.75 0
      vertex 0.75 -4 2
    endloop
  endfacet
  facet normal -1 0 0
    outer loop
      vertex -0.75 4 -2
      vertex -0.75 3.54897 0.0247736
      vertex -0.75 4 2
    endloop
  endfacet
  facet normal -1 0 0
    outer loop
      vertex -0.75 4 -2
      vertex -0.75 3.54082 -0.0736456
      vertex -0.75 3.54897 0.0247736
    endloop
  endfacet
  facet normal -1 0 0
    outer loop
      vertex -0.75 4 -2
      vertex -0.75 3.50115 -0.164084
      vertex -0.75 3.54082 -0.0736456
    endloop
  endfacet
  facet normal -1 0 0
    outer loop
      vertex -0.75 4 -2
      vertex -0.75 3.43426 -0.236742
      vertex -0.75 3.50115 -0.164084
    endloop
  endfacet
  facet normal -1 0 0
    outer loop
      vertex -0.75 4 -2
      vertex -0.75 3.34741 -0.283745
      vertex -0.75 3.43426 -0.236742
    endloop
  endfacet
  facet normal -1 0 0
    outer loop
      vertex -0.75 4 -2
      vertex -0.75 3.25 -0.299999
      vertex -0.75 3.34741 -0.283745
    endloop
  endfacet
  facet normal -1 0 0
    outer loop
      vertex -0.75 2.38235 -2
      vertex -0.75 3.25 -0.299999
      vertex -0.75 4 -2
    endloop
  endfacet
  facet normal -1 -0 0
    outer loop
      vertex -0.75 3.25 -0.299999
      vertex -0.75 2.38235 -2
      vertex -0.75 3.15259 -0.283745
    endloop
  endfacet
  facet normal -1 -0 0
    outer loop
      vertex -0.75 3.15259 -0.283745
      vertex -0.75 2.38235 -2
      vertex -0.75 3.06574 -0.236742
    endloop
  endfacet
  facet normal -1 -0 0
    outer loop
      vertex -0.75 2.95918 -0.0736456
      vertex -0.75 2.38235 -2
      vertex -0.75 2.95102 0.0247736
    endloop
  endfacet
  facet normal -1 -0 0
    outer loop
      vertex -0.75 2.99885 -0.164084
      vertex -0.75 2.38235 -2
      vertex -0.75 2.95918 -0.0736456
    endloop
  endfacet
  facet normal -1 -0 0
    outer loop
      vertex -0.75 3.06574 -0.236742
      vertex -0.75 2.38235 -2
      vertex -0.75 2.99885 -0.164084
    endloop
  endfacet
  facet normal -1 0 0
    outer loop
      vertex -0.75 3.52473 0.120508
      vertex -0.75 4 2
      vertex -0.75 3.54897 0.0247736
    endloop
  endfacet
  facet normal -1 0 0
    outer loop
      vertex -0.75 3.47072 0.203184
      vertex -0.75 4 2
      vertex -0.75 3.52473 0.120508
    endloop
  endfacet
  facet normal -1 0 0
    outer loop
      vertex -0.75 3.39278 0.263842
      vertex -0.75 4 2
      vertex -0.75 3.47072 0.203184
    endloop
  endfacet
  facet normal -1 0 0
    outer loop
      vertex -0.75 3.29938 0.295908
      vertex -0.75 4 2
      vertex -0.75 3.39278 0.263842
    endloop
  endfacet
  facet normal -1 0 0
    outer loop
      vertex -0.75 3.20062 0.295908
      vertex -0.75 4 2
      vertex -0.75 3.29938 0.295908
    endloop
  endfacet
  facet normal -1 0 0
    outer loop
      vertex -0.75 2.38235 2
      vertex -0.75 3.20062 0.295908
      vertex -0.75 3.10721 0.263842
    endloop
  endfacet
  facet normal -1 0 0
    outer loop
      vertex -0.75 2.38235 2
      vertex -0.75 3.10721 0.263842
      vertex -0.75 3.02928 0.203184
    endloop
  endfacet
  facet normal -1 0 0
    outer loop
      vertex -0.75 2.38235 2
      vertex -0.75 3.02928 0.203184
      vertex -0.75 2.97527 0.120508
    endloop
  endfacet
  facet normal -1 0 0
    outer loop
      vertex -0.75 2.38235 2
      vertex -0.75 2.95102 0.0247736
      vertex -0.75 2.38235 -2
    endloop
  endfacet
  facet normal -1 0 0
    outer loop
      vertex -0.75 3.20062 0.295908
      vertex -0.75 2.38235 2
      vertex -0.75 4 2
    endloop
  endfacet
  facet normal -1 0 0
    outer loop
      vertex -0.75 2.95102 0.0247736
      vertex -0.75 2.38235 2
      vertex -0.75 2.97527 0.120508
    endloop
  endfacet
  facet normal -1 0 0
    outer loop
      vertex -0.75 -2.38235 -2
      vertex -0.75 -2.95102 0.0247736
      vertex -0.75 -2.38235 2
    endloop
  endfacet
  facet normal -1 0 0
    outer loop
      vertex -0.75 -2.38235 -2
      vertex -0.75 -2.95918 -0.0736456
      vertex -0.75 -2.95102 0.0247736
    endloop
  endfacet
  facet normal -1 0 0
    outer loop
      vertex -0.75 -2.38235 -2
      vertex -0.75 -2.99885 -0.164084
      vertex -0.75 -2.95918 -0.0736456
    endloop
  endfacet
  facet normal -1 0 0
    outer loop
      vertex -0.75 -2.38235 -2
      vertex -0.75 -3.06574 -0.236742
      vertex -0.75 -2.99885 -0.164084
    endloop
  endfacet
  facet normal -1 0 0
    outer loop
      vertex -0.75 -2.38235 -2
      vertex -0.75 -3.15259 -0.283745
      vertex -0.75 -3.06574 -0.236742
    endloop
  endfacet
  facet normal -1 0 0
    outer loop
      vertex -0.75 -2.38235 -2
      vertex -0.75 -3.25 -0.299999
      vertex -0.75 -3.15259 -0.283745
    endloop
  endfacet
  facet normal -1 0 0
    outer loop
      vertex -0.75 -4 -2
      vertex -0.75 -3.25 -0.299999
      vertex -0.75 -2.38235 -2
    endloop
  endfacet
  facet normal -1 -0 0
    outer loop
      vertex -0.75 -3.25 -0.299999
      vertex -0.75 -4 -2
      vertex -0.75 -3.34741 -0.283745
    endloop
  endfacet
  facet normal -1 -0 0
    outer loop
      vertex -0.75 -3.34741 -0.283745
      vertex -0.75 -4 -2
      vertex -0.75 -3.43426 -0.236742
    endloop
  endfacet
  facet normal -1 -0 0
    outer loop
      vertex -0.75 -3.54082 -0.0736456
      vertex -0.75 -4 -2
      vertex -0.75 -3.54897 0.0247736
    endloop
  endfacet
  facet normal -1 -0 0
    outer loop
      vertex -0.75 -3.50115 -0.164084
      vertex -0.75 -4 -2
      vertex -0.75 -3.54082 -0.0736456
    endloop
  endfacet
  facet normal -1 -0 0
    outer loop
      vertex -0.75 -3.43426 -0.236742
      vertex -0.75 -4 -2
      vertex -0.75 -3.50115 -0.164084
    endloop
  endfacet
  facet normal -1 0 0
    outer loop
      vertex -0.75 -2.97527 0.120508
      vertex -0.75 -2.38235 2
      vertex -0.75 -2.95102 0.0247736
    endloop
  endfacet
  facet normal -1 0 0
    outer loop
      vertex -0.75 -3.02928 0.203184
      vertex -0.75 -2.38235 2
      vertex -0.75 -2.97527 0.120508
    endloop
  endfacet
  facet normal -1 0 0
    outer loop
      vertex -0.75 -3.10721 0.263842
      vertex -0.75 -2.38235 2
      vertex -0.75 -3.02928 0.203184
    endloop
  endfacet
  facet normal -1 0 0
    outer loop
      vertex -0.75 -3.20062 0.295908
      vertex -0.75 -2.38235 2
      vertex -0.75 -3.10721 0.263842
    endloop
  endfacet
  facet normal -1 0 0
    outer loop
      vertex -0.75 -4 2
      vertex -0.75 -3.20062 0.295908
      vertex -0.75 -3.29938 0.295908
    endloop
  endfacet
  facet normal -1 0 0
    outer loop
      vertex -0.75 -4 2
      vertex -0.75 -3.29938 0.295908
      vertex -0.75 -3.39278 0.263842
    endloop
  endfacet
  facet normal -1 0 0
    outer loop
      vertex -0.75 -4 2
      vertex -0.75 -3.39278 0.263842
      vertex -0.75 -3.47072 0.203184
    endloop
  endfacet
  facet normal -1 0 0
    outer loop
      vertex -0.75 -4 2
      vertex -0.75 -3.47072 0.203184
      vertex -0.75 -3.52473 0.120508
    endloop
  endfacet
  facet normal -1 0 0
    outer loop
      vertex -0.75 -3.20062 0.295908
      vertex -0.75 -4 2
      vertex -0.75 -2.38235 2
    endloop
  endfacet
  facet normal -1 0 0
    outer loop
      vertex -0.75 -3.54897 0.0247736
      vertex -0.75 -4 2
      vertex -0.75 -3.52473 0.120508
    endloop
  endfacet
  facet normal -1 0 0
    outer loop
      vertex -0.75 -4 2
      vertex -0.75 -3.54897 0.0247736
      vertex -0.75 -4 -2
    endloop
  endfacet
  facet normal 0 1 -0
    outer loop
      vertex 0.75 4 -2
      vertex -0.75 4 2
      vertex 0.75 4 2
    endloop
  endfacet
  facet normal 0 1 0
    outer loop
      vertex -0.75 4 2
      vertex 0.75 4 -2
      vertex -0.75 4 -2
    endloop
  endfacet
  facet normal 0 -1 0
    outer loop
      vertex -0.75 -4 -2
      vertex 0.75 -4 2
      vertex -0.75 -4 2
    endloop
  endfacet
  facet normal 0 -1 -0
    outer loop
      vertex 0.75 -4 2
      vertex -0.75 -4 -2
      vertex 0.75 -4 -2
    endloop
  endfacet
  facet normal 0 0.809018 -0.587784
    outer loop
      vertex 0.75 -3.75 0
      vertex 0.5 -3.40451 0.475528
      vertex 0.75 -3.40451 0.475528
    endloop
  endfacet
  facet normal 0 0.809018 -0.587784
    outer loop
      vertex 0.5 -3.40451 0.475528
      vertex 0.75 -3.75 0
      vertex 0.5 -3.75 0
    endloop
  endfacet
  facet normal 0 -0.309016 -0.951057
    outer loop
      vertex 0.5 -3.40451 0.475528
      vertex 0.75 -2.84549 0.293892
      vertex 0.75 -3.40451 0.475528
    endloop
  endfacet
  facet normal -0 -0.309016 -0.951057
    outer loop
      vertex 0.75 -2.84549 0.293892
      vertex 0.5 -3.40451 0.475528
      vertex 0.5 -2.84549 0.293892
    endloop
  endfacet
  facet normal 0 -1 0
    outer loop
      vertex 0.5 -2.84549 -0.293892
      vertex 0.75 -2.84549 0.293892
      vertex 0.5 -2.84549 0.293892
    endloop
  endfacet
  facet normal 0 -1 -0
    outer loop
      vertex 0.75 -2.84549 0.293892
      vertex 0.5 -2.84549 -0.293892
      vertex 0.75 -2.84549 -0.293892
    endloop
  endfacet
  facet normal 0 -0.309016 0.951057
    outer loop
      vertex 0.5 -2.84549 -0.293892
      vertex 0.75 -3.40451 -0.475528
      vertex 0.75 -2.84549 -0.293892
    endloop
  endfacet
  facet normal 0 -0.309016 0.951057
    outer loop
      vertex 0.75 -3.40451 -0.475528
      vertex 0.5 -2.84549 -0.293892
      vertex 0.5 -3.40451 -0.475528
    endloop
  endfacet
  facet normal 0 0.809018 0.587784
    outer loop
      vertex 0.75 -3.40451 -0.475528
      vertex 0.5 -3.75 0
      vertex 0.75 -3.75 0
    endloop
  endfacet
  facet normal 0 0.809018 0.587784
    outer loop
      vertex 0.5 -3.75 0
      vertex 0.75 -3.40451 -0.475528
      vertex 0.5 -3.40451 -0.475528
    endloop
  endfacet
  facet normal 1 0 0
    outer loop
      vertex 0.5 -2.84549 0.293892
      vertex 0.5 -2.95102 0.0247736
      vertex 0.5 -2.84549 -0.293892
    endloop
  endfacet
  facet normal 1 0 0
    outer loop
      vertex 0.5 -2.84549 0.293892
      vertex 0.5 -2.97527 0.120508
      vertex 0.5 -2.95102 0.0247736
    endloop
  endfacet
  facet normal 1 0 0
    outer loop
      vertex 0.5 -2.84549 0.293892
      vertex 0.5 -3.02928 0.203184
      vertex 0.5 -2.97527 0.120508
    endloop
  endfacet
  facet normal 1 0 0
    outer loop
      vertex 0.5 -2.84549 0.293892
      vertex 0.5 -3.10721 0.263842
      vertex 0.5 -3.02928 0.203184
    endloop
  endfacet
  facet normal 1 0 0
    outer loop
      vertex 0.5 -2.84549 0.293892
      vertex 0.5 -3.20062 0.295908
      vertex 0.5 -3.10721 0.263842
    endloop
  endfacet
  facet normal 1 0 0
    outer loop
      vertex 0.5 -3.40451 0.475528
      vertex 0.5 -3.20062 0.295908
      vertex 0.5 -2.84549 0.293892
    endloop
  endfacet
  facet normal 1 0 0
    outer loop
      vertex 0.5 -3.40451 0.475528
      vertex 0.5 -3.29938 0.295908
      vertex 0.5 -3.20062 0.295908
    endloop
  endfacet
  facet normal 1 0 0
    outer loop
      vertex 0.5 -3.40451 0.475528
      vertex 0.5 -3.39278 0.263842
      vertex 0.5 -3.29938 0.295908
    endloop
  endfacet
  facet normal 1 0 0
    outer loop
      vertex 0.5 -3.40451 0.475528
      vertex 0.5 -3.47072 0.203184
      vertex 0.5 -3.39278 0.263842
    endloop
  endfacet
  facet normal 1 0 0
    outer loop
      vertex 0.5 -3.75 0
      vertex 0.5 -3.47072 0.203184
      vertex 0.5 -3.40451 0.475528
    endloop
  endfacet
  facet normal 1 0 0
    outer loop
      vertex 0.5 -3.52473 0.120508
      vertex 0.5 -3.75 0
      vertex 0.5 -3.54897 0.0247736
    endloop
  endfacet
  facet normal 1 0 0
    outer loop
      vertex 0.5 -3.47072 0.203184
      vertex 0.5 -3.75 0
      vertex 0.5 -3.52473 0.120508
    endloop
  endfacet
  facet normal 1 -0 0
    outer loop
      vertex 0.5 -2.95918 -0.0736456
      vertex 0.5 -2.84549 -0.293892
      vertex 0.5 -2.95102 0.0247736
    endloop
  endfacet
  facet normal 1 -0 0
    outer loop
      vertex 0.5 -2.99885 -0.164084
      vertex 0.5 -2.84549 -0.293892
      vertex 0.5 -2.95918 -0.0736456
    endloop
  endfacet
  facet normal 1 -0 0
    outer loop
      vertex 0.5 -3.06574 -0.236742
      vertex 0.5 -2.84549 -0.293892
      vertex 0.5 -2.99885 -0.164084
    endloop
  endfacet
  facet normal 1 -0 0
    outer loop
      vertex 0.5 -3.15259 -0.283745
      vertex 0.5 -2.84549 -0.293892
      vertex 0.5 -3.06574 -0.236742
    endloop
  endfacet
  facet normal 1 0 0
    outer loop
      vertex 0.5 -3.40451 -0.475528
      vertex 0.5 -3.15259 -0.283745
      vertex 0.5 -3.25 -0.299999
    endloop
  endfacet
  facet normal 1 0 0
    outer loop
      vertex 0.5 -3.15259 -0.283745
      vertex 0.5 -3.40451 -0.475528
      vertex 0.5 -2.84549 -0.293892
    endloop
  endfacet
  facet normal 1 0 0
    outer loop
      vertex 0.5 -3.34741 -0.283745
      vertex 0.5 -3.40451 -0.475528
      vertex 0.5 -3.25 -0.299999
    endloop
  endfacet
  facet normal 1 0 0
    outer loop
      vertex 0.5 -3.43426 -0.236742
      vertex 0.5 -3.40451 -0.475528
      vertex 0.5 -3.34741 -0.283745
    endloop
  endfacet
  facet normal 1 0 0
    outer loop
      vertex 0.5 -3.50115 -0.164084
      vertex 0.5 -3.40451 -0.475528
      vertex 0.5 -3.43426 -0.236742
    endloop
  endfacet
  facet normal 1 0 0
    outer loop
      vertex 0.5 -3.75 0
      vertex 0.5 -3.50115 -0.164084
      vertex 0.5 -3.54082 -0.0736456
    endloop
  endfacet
  facet normal 1 0 0
    outer loop
      vertex 0.5 -3.50115 -0.164084
      vertex 0.5 -3.75 0
      vertex 0.5 -3.40451 -0.475528
    endloop
  endfacet
  facet normal 1 -0 0
    outer loop
      vertex 0.5 -3.75 0
      vertex 0.5 -3.54082 -0.0736456
      vertex 0.5 -3.54897 0.0247736
    endloop
  endfacet
  facet normal 0 0.915773 0.401696
    outer loop
      vertex 0.5 -3.50115 -0.164084
      vertex -0.75 -3.54082 -0.0736456
      vertex 0.5 -3.54082 -0.0736456
    endloop
  endfacet
  facet normal 0 0.915773 0.401696
    outer loop
      vertex -0.75 -3.54082 -0.0736456
      vertex 0.5 -3.50115 -0.164084
      vertex -0.75 -3.50115 -0.164084
    endloop
  endfacet
  facet normal 0 -0.969384 -0.24555
    outer loop
      vertex -0.75 -2.95102 0.0247736
      vertex 0.5 -2.97527 0.120508
      vertex -0.75 -2.97527 0.120508
    endloop
  endfacet
  facet normal 0 -0.969384 -0.24555
    outer loop
      vertex 0.5 -2.97527 0.120508
      vertex -0.75 -2.95102 0.0247736
      vertex 0.5 -2.95102 0.0247736
    endloop
  endfacet
  facet normal 0 0.324715 -0.945812
    outer loop
      vertex -0.75 -3.39278 0.263842
      vertex 0.5 -3.29938 0.295908
      vertex 0.5 -3.39278 0.263842
    endloop
  endfacet
  facet normal 0 0.324715 -0.945812
    outer loop
      vertex 0.5 -3.29938 0.295908
      vertex -0.75 -3.39278 0.263842
      vertex -0.75 -3.29938 0.295908
    endloop
  endfacet
  facet normal -0 0.164586 0.986363
    outer loop
      vertex -0.75 -3.25 -0.299999
      vertex 0.5 -3.34741 -0.283745
      vertex 0.5 -3.25 -0.299999
    endloop
  endfacet
  facet normal 0 0.164586 0.986363
    outer loop
      vertex 0.5 -3.34741 -0.283745
      vertex -0.75 -3.25 -0.299999
      vertex -0.75 -3.34741 -0.283745
    endloop
  endfacet
  facet normal 0 0.996589 0.0825266
    outer loop
      vertex 0.5 -3.54082 -0.0736456
      vertex -0.75 -3.54897 0.0247736
      vertex 0.5 -3.54897 0.0247736
    endloop
  endfacet
  facet normal 0 0.996589 0.0825266
    outer loop
      vertex -0.75 -3.54897 0.0247736
      vertex 0.5 -3.54082 -0.0736456
      vertex -0.75 -3.54082 -0.0736456
    endloop
  endfacet
  facet normal 0 0 -1
    outer loop
      vertex -0.75 -3.29938 0.295908
      vertex 0.5 -3.20062 0.295908
      vertex 0.5 -3.29938 0.295908
    endloop
  endfacet
  facet normal -0 0 -1
    outer loop
      vertex 0.5 -3.20062 0.295908
      vertex -0.75 -3.29938 0.295908
      vertex -0.75 -3.20062 0.295908
    endloop
  endfacet
  facet normal 0 0.735706 0.677301
    outer loop
      vertex 0.5 -3.43426 -0.236742
      vertex -0.75 -3.50115 -0.164084
      vertex 0.5 -3.50115 -0.164084
    endloop
  endfacet
  facet normal 0 0.735706 0.677301
    outer loop
      vertex -0.75 -3.50115 -0.164084
      vertex 0.5 -3.43426 -0.236742
      vertex -0.75 -3.43426 -0.236742
    endloop
  endfacet
  facet normal 0 -0.475964 0.879465
    outer loop
      vertex -0.75 -3.06574 -0.236742
      vertex 0.5 -3.15259 -0.283745
      vertex 0.5 -3.06574 -0.236742
    endloop
  endfacet
  facet normal 0 -0.475964 0.879465
    outer loop
      vertex 0.5 -3.15259 -0.283745
      vertex -0.75 -3.06574 -0.236742
      vertex -0.75 -3.15259 -0.283745
    endloop
  endfacet
  facet normal 0 -0.735706 0.677301
    outer loop
      vertex -0.75 -3.06574 -0.236742
      vertex 0.5 -2.99885 -0.164084
      vertex -0.75 -2.99885 -0.164084
    endloop
  endfacet
  facet normal 0 -0.735706 0.677301
    outer loop
      vertex 0.5 -2.99885 -0.164084
      vertex -0.75 -3.06574 -0.236742
      vertex 0.5 -3.06574 -0.236742
    endloop
  endfacet
  facet normal 0 -0.324684 -0.945823
    outer loop
      vertex -0.75 -3.20062 0.295908
      vertex 0.5 -3.10721 0.263842
      vertex 0.5 -3.20062 0.295908
    endloop
  endfacet
  facet normal -0 -0.324684 -0.945823
    outer loop
      vertex 0.5 -3.10721 0.263842
      vertex -0.75 -3.20062 0.295908
      vertex -0.75 -3.10721 0.263842
    endloop
  endfacet
  facet normal 0 0.837189 -0.546913
    outer loop
      vertex 0.5 -3.52473 0.120508
      vertex -0.75 -3.47072 0.203184
      vertex 0.5 -3.47072 0.203184
    endloop
  endfacet
  facet normal 0 0.837189 -0.546913
    outer loop
      vertex -0.75 -3.47072 0.203184
      vertex 0.5 -3.52473 0.120508
      vertex -0.75 -3.52473 0.120508
    endloop
  endfacet
  facet normal 0 -0.614229 -0.789128
    outer loop
      vertex -0.75 -3.10721 0.263842
      vertex 0.5 -3.02928 0.203184
      vertex 0.5 -3.10721 0.263842
    endloop
  endfacet
  facet normal -0 -0.614229 -0.789128
    outer loop
      vertex 0.5 -3.02928 0.203184
      vertex -0.75 -3.10721 0.263842
      vertex -0.75 -3.02928 0.203184
    endloop
  endfacet
  facet normal 0 -0.164586 0.986363
    outer loop
      vertex -0.75 -3.15259 -0.283745
      vertex 0.5 -3.25 -0.299999
      vertex 0.5 -3.15259 -0.283745
    endloop
  endfacet
  facet normal 0 -0.164586 0.986363
    outer loop
      vertex 0.5 -3.25 -0.299999
      vertex -0.75 -3.15259 -0.283745
      vertex -0.75 -3.25 -0.299999
    endloop
  endfacet
  facet normal 0 0.61418 -0.789166
    outer loop
      vertex -0.75 -3.47072 0.203184
      vertex 0.5 -3.39278 0.263842
      vertex 0.5 -3.47072 0.203184
    endloop
  endfacet
  facet normal 0 0.61418 -0.789166
    outer loop
      vertex 0.5 -3.39278 0.263842
      vertex -0.75 -3.47072 0.203184
      vertex -0.75 -3.39278 0.263842
    endloop
  endfacet
  facet normal 0 -0.996581 0.0826271
    outer loop
      vertex -0.75 -2.95918 -0.0736456
      vertex 0.5 -2.95102 0.0247736
      vertex -0.75 -2.95102 0.0247736
    endloop
  endfacet
  facet normal 0 -0.996581 0.0826271
    outer loop
      vertex 0.5 -2.95102 0.0247736
      vertex -0.75 -2.95918 -0.0736456
      vertex 0.5 -2.95918 -0.0736456
    endloop
  endfacet
  facet normal 0 -0.915773 0.401696
    outer loop
      vertex -0.75 -2.99885 -0.164084
      vertex 0.5 -2.95918 -0.0736456
      vertex -0.75 -2.95918 -0.0736456
    endloop
  endfacet
  facet normal 0 -0.915773 0.401696
    outer loop
      vertex 0.5 -2.95918 -0.0736456
      vertex -0.75 -2.99885 -0.164084
      vertex 0.5 -2.99885 -0.164084
    endloop
  endfacet
  facet normal 0 0.969408 -0.245455
    outer loop
      vertex 0.5 -3.54897 0.0247736
      vertex -0.75 -3.52473 0.120508
      vertex 0.5 -3.52473 0.120508
    endloop
  endfacet
  facet normal 0 0.969408 -0.245455
    outer loop
      vertex -0.75 -3.52473 0.120508
      vertex 0.5 -3.54897 0.0247736
      vertex -0.75 -3.54897 0.0247736
    endloop
  endfacet
  facet normal -0 0.475964 0.879465
    outer loop
      vertex -0.75 -3.34741 -0.283745
      vertex 0.5 -3.43426 -0.236742
      vertex 0.5 -3.34741 -0.283745
    endloop
  endfacet
  facet normal 0 0.475964 0.879465
    outer loop
      vertex 0.5 -3.43426 -0.236742
      vertex -0.75 -3.34741 -0.283745
      vertex -0.75 -3.43426 -0.236742
    endloop
  endfacet
  facet normal 0 -0.837189 -0.546913
    outer loop
      vertex -0.75 -2.97527 0.120508
      vertex 0.5 -3.02928 0.203184
      vertex -0.75 -3.02928 0.203184
    endloop
  endfacet
  facet normal 0 -0.837189 -0.546913
    outer loop
      vertex 0.5 -3.02928 0.203184
      vertex -0.75 -2.97527 0.120508
      vertex 0.5 -2.97527 0.120508
    endloop
  endfacet
  facet normal 0 0.809018 -0.587784
    outer loop
      vertex 0.75 2.75 0
      vertex 0.5 3.09549 0.475528
      vertex 0.75 3.09549 0.475528
    endloop
  endfacet
  facet normal 0 0.809018 -0.587784
    outer loop
      vertex 0.5 3.09549 0.475528
      vertex 0.75 2.75 0
      vertex 0.5 2.75 0
    endloop
  endfacet
  facet normal 0 -0.309016 -0.951057
    outer loop
      vertex 0.5 3.09549 0.475528
      vertex 0.75 3.65451 0.293892
      vertex 0.75 3.09549 0.475528
    endloop
  endfacet
  facet normal -0 -0.309016 -0.951057
    outer loop
      vertex 0.75 3.65451 0.293892
      vertex 0.5 3.09549 0.475528
      vertex 0.5 3.65451 0.293892
    endloop
  endfacet
  facet normal 0 -1 0
    outer loop
      vertex 0.5 3.65451 -0.293892
      vertex 0.75 3.65451 0.293892
      vertex 0.5 3.65451 0.293892
    endloop
  endfacet
  facet normal 0 -1 -0
    outer loop
      vertex 0.75 3.65451 0.293892
      vertex 0.5 3.65451 -0.293892
      vertex 0.75 3.65451 -0.293892
    endloop
  endfacet
  facet normal 0 -0.309016 0.951057
    outer loop
      vertex 0.5 3.65451 -0.293892
      vertex 0.75 3.09549 -0.475528
      vertex 0.75 3.65451 -0.293892
    endloop
  endfacet
  facet normal 0 -0.309016 0.951057
    outer loop
      vertex 0.75 3.09549 -0.475528
      vertex 0.5 3.65451 -0.293892
      vertex 0.5 3.09549 -0.475528
    endloop
  endfacet
  facet normal 0 0.809018 0.587784
    outer loop
      vertex 0.75 3.09549 -0.475528
      vertex 0.5 2.75 0
      vertex 0.75 2.75 0
    endloop
  endfacet
  facet normal 0 0.809018 0.587784
    outer loop
      vertex 0.5 2.75 0
      vertex 0.75 3.09549 -0.475528
      vertex 0.5 3.09549 -0.475528
    endloop
  endfacet
  facet normal 1 0 0
    outer loop
      vertex 0.5 3.65451 0.293892
      vertex 0.5 3.54897 0.0247736
      vertex 0.5 3.65451 -0.293892
    endloop
  endfacet
  facet normal 1 0 0
    outer loop
      vertex 0.5 3.65451 0.293892
      vertex 0.5 3.52473 0.120508
      vertex 0.5 3.54897 0.0247736
    endloop
  endfacet
  facet normal 1 0 0
    outer loop
      vertex 0.5 3.65451 0.293892
      vertex 0.5 3.47072 0.203184
      vertex 0.5 3.52473 0.120508
    endloop
  endfacet
  facet normal 1 0 0
    outer loop
      vertex 0.5 3.65451 0.293892
      vertex 0.5 3.39278 0.263842
      vertex 0.5 3.47072 0.203184
    endloop
  endfacet
  facet normal 1 0 0
    outer loop
      vertex 0.5 3.65451 0.293892
      vertex 0.5 3.29938 0.295908
      vertex 0.5 3.39278 0.263842
    endloop
  endfacet
  facet normal 1 0 0
    outer loop
      vertex 0.5 3.09549 0.475528
      vertex 0.5 3.29938 0.295908
      vertex 0.5 3.65451 0.293892
    endloop
  endfacet
  facet normal 1 0 0
    outer loop
      vertex 0.5 3.09549 0.475528
      vertex 0.5 3.20062 0.295908
      vertex 0.5 3.29938 0.295908
    endloop
  endfacet
  facet normal 1 0 0
    outer loop
      vertex 0.5 3.09549 0.475528
      vertex 0.5 3.10721 0.263842
      vertex 0.5 3.20062 0.295908
    endloop
  endfacet
  facet normal 1 0 0
    outer loop
      vertex 0.5 3.09549 0.475528
      vertex 0.5 3.02928 0.203184
      vertex 0.5 3.10721 0.263842
    endloop
  endfacet
  facet normal 1 0 0
    outer loop
      vertex 0.5 2.75 0
      vertex 0.5 3.02928 0.203184
      vertex 0.5 3.09549 0.475528
    endloop
  endfacet
  facet normal 1 0 0
    outer loop
      vertex 0.5 2.97527 0.120508
      vertex 0.5 2.75 0
      vertex 0.5 2.95102 0.0247736
    endloop
  endfacet
  facet normal 1 0 0
    outer loop
      vertex 0.5 3.02928 0.203184
      vertex 0.5 2.75 0
      vertex 0.5 2.97527 0.120508
    endloop
  endfacet
  facet normal 1 -0 0
    outer loop
      vertex 0.5 3.54082 -0.0736456
      vertex 0.5 3.65451 -0.293892
      vertex 0.5 3.54897 0.0247736
    endloop
  endfacet
  facet normal 1 -0 0
    outer loop
      vertex 0.5 3.50115 -0.164084
      vertex 0.5 3.65451 -0.293892
      vertex 0.5 3.54082 -0.0736456
    endloop
  endfacet
  facet normal 1 -0 0
    outer loop
      vertex 0.5 3.43426 -0.236742
      vertex 0.5 3.65451 -0.293892
      vertex 0.5 3.50115 -0.164084
    endloop
  endfacet
  facet normal 1 -0 0
    outer loop
      vertex 0.5 3.34741 -0.283745
      vertex 0.5 3.65451 -0.293892
      vertex 0.5 3.43426 -0.236742
    endloop
  endfacet
  facet normal 1 0 0
    outer loop
      vertex 0.5 3.09549 -0.475528
      vertex 0.5 3.34741 -0.283745
      vertex 0.5 3.25 -0.299999
    endloop
  endfacet
  facet normal 1 0 0
    outer loop
      vertex 0.5 3.34741 -0.283745
      vertex 0.5 3.09549 -0.475528
      vertex 0.5 3.65451 -0.293892
    endloop
  endfacet
  facet normal 1 0 0
    outer loop
      vertex 0.5 3.15259 -0.283745
      vertex 0.5 3.09549 -0.475528
      vertex 0.5 3.25 -0.299999
    endloop
  endfacet
  facet normal 1 0 0
    outer loop
      vertex 0.5 3.06574 -0.236742
      vertex 0.5 3.09549 -0.475528
      vertex 0.5 3.15259 -0.283745
    endloop
  endfacet
  facet normal 1 0 0
    outer loop
      vertex 0.5 2.99885 -0.164084
      vertex 0.5 3.09549 -0.475528
      vertex 0.5 3.06574 -0.236742
    endloop
  endfacet
  facet normal 1 0 0
    outer loop
      vertex 0.5 2.75 0
      vertex 0.5 2.99885 -0.164084
      vertex 0.5 2.95918 -0.0736456
    endloop
  endfacet
  facet normal 1 0 0
    outer loop
      vertex 0.5 2.99885 -0.164084
      vertex 0.5 2.75 0
      vertex 0.5 3.09549 -0.475528
    endloop
  endfacet
  facet normal 1 -0 0
    outer loop
      vertex 0.5 2.75 0
      vertex 0.5 2.95918 -0.0736456
      vertex 0.5 2.95102 0.0247736
    endloop
  endfacet
  facet normal 0 0.915773 0.401696
    outer loop
      vertex 0.5 2.99885 -0.164084
      vertex -0.75 2.95918 -0.0736456
      vertex 0.5 2.95918 -0.0736456
    endloop
  endfacet
  facet normal 0 0.915773 0.401696
    outer loop
      vertex -0.75 2.95918 -0.0736456
      vertex 0.5 2.99885 -0.164084
      vertex -0.75 2.99885 -0.164084
    endloop
  endfacet
  facet normal 0 -0.969408 -0.245455
    outer loop
      vertex -0.75 3.54897 0.0247736
      vertex 0.5 3.52473 0.120508
      vertex -0.75 3.52473 0.120508
    endloop
  endfacet
  facet normal 0 -0.969408 -0.245455
    outer loop
      vertex 0.5 3.52473 0.120508
      vertex -0.75 3.54897 0.0247736
      vertex 0.5 3.54897 0.0247736
    endloop
  endfacet
  facet normal 0 0.324684 -0.945823
    outer loop
      vertex -0.75 3.10721 0.263842
      vertex 0.5 3.20062 0.295908
      vertex 0.5 3.10721 0.263842
    endloop
  endfacet
  facet normal 0 0.324684 -0.945823
    outer loop
      vertex 0.5 3.20062 0.295908
      vertex -0.75 3.10721 0.263842
      vertex -0.75 3.20062 0.295908
    endloop
  endfacet
  facet normal 0 -0.475964 0.879465
    outer loop
      vertex -0.75 3.43426 -0.236742
      vertex 0.5 3.34741 -0.283745
      vertex 0.5 3.43426 -0.236742
    endloop
  endfacet
  facet normal 0 -0.475964 0.879465
    outer loop
      vertex 0.5 3.34741 -0.283745
      vertex -0.75 3.43426 -0.236742
      vertex -0.75 3.34741 -0.283745
    endloop
  endfacet
  facet normal 0 -0.324715 -0.945812
    outer loop
      vertex -0.75 3.29938 0.295908
      vertex 0.5 3.39278 0.263842
      vertex 0.5 3.29938 0.295908
    endloop
  endfacet
  facet normal -0 -0.324715 -0.945812
    outer loop
      vertex 0.5 3.39278 0.263842
      vertex -0.75 3.29938 0.295908
      vertex -0.75 3.39278 0.263842
    endloop
  endfacet
  facet normal -0 0.164586 0.986363
    outer loop
      vertex -0.75 3.25 -0.299999
      vertex 0.5 3.15259 -0.283745
      vertex 0.5 3.25 -0.299999
    endloop
  endfacet
  facet normal 0 0.164586 0.986363
    outer loop
      vertex 0.5 3.15259 -0.283745
      vertex -0.75 3.25 -0.299999
      vertex -0.75 3.15259 -0.283745
    endloop
  endfacet
  facet normal 0 0.837189 -0.546913
    outer loop
      vertex 0.5 2.97527 0.120508
      vertex -0.75 3.02928 0.203184
      vertex 0.5 3.02928 0.203184
    endloop
  endfacet
  facet normal 0 0.837189 -0.546913
    outer loop
      vertex -0.75 3.02928 0.203184
      vertex 0.5 2.97527 0.120508
      vertex -0.75 2.97527 0.120508
    endloop
  endfacet
  facet normal 0 -0.735706 0.677301
    outer loop
      vertex -0.75 3.43426 -0.236742
      vertex 0.5 3.50115 -0.164084
      vertex -0.75 3.50115 -0.164084
    endloop
  endfacet
  facet normal 0 -0.735706 0.677301
    outer loop
      vertex 0.5 3.50115 -0.164084
      vertex -0.75 3.43426 -0.236742
      vertex 0.5 3.43426 -0.236742
    endloop
  endfacet
  facet normal 0 0 -1
    outer loop
      vertex -0.75 3.20062 0.295908
      vertex 0.5 3.29938 0.295908
      vertex 0.5 3.20062 0.295908
    endloop
  endfacet
  facet normal -0 0 -1
    outer loop
      vertex 0.5 3.29938 0.295908
      vertex -0.75 3.20062 0.295908
      vertex -0.75 3.29938 0.295908
    endloop
  endfacet
  facet normal 0 -0.61418 -0.789166
    outer loop
      vertex -0.75 3.39278 0.263842
      vertex 0.5 3.47072 0.203184
      vertex 0.5 3.39278 0.263842
    endloop
  endfacet
  facet normal -0 -0.61418 -0.789166
    outer loop
      vertex 0.5 3.47072 0.203184
      vertex -0.75 3.39278 0.263842
      vertex -0.75 3.47072 0.203184
    endloop
  endfacet
  facet normal 0 0.996581 0.0826271
    outer loop
      vertex 0.5 2.95918 -0.0736456
      vertex -0.75 2.95102 0.0247736
      vertex 0.5 2.95102 0.0247736
    endloop
  endfacet
  facet normal 0 0.996581 0.0826271
    outer loop
      vertex -0.75 2.95102 0.0247736
      vertex 0.5 2.95918 -0.0736456
      vertex -0.75 2.95918 -0.0736456
    endloop
  endfacet
  facet normal 0 -0.164586 0.986363
    outer loop
      vertex -0.75 3.34741 -0.283745
      vertex 0.5 3.25 -0.299999
      vertex 0.5 3.34741 -0.283745
    endloop
  endfacet
  facet normal 0 -0.164586 0.986363
    outer loop
      vertex 0.5 3.25 -0.299999
      vertex -0.75 3.34741 -0.283745
      vertex -0.75 3.25 -0.299999
    endloop
  endfacet
  facet normal 0 0.614229 -0.789128
    outer loop
      vertex -0.75 3.02928 0.203184
      vertex 0.5 3.10721 0.263842
      vertex 0.5 3.02928 0.203184
    endloop
  endfacet
  facet normal 0 0.614229 -0.789128
    outer loop
      vertex 0.5 3.10721 0.263842
      vertex -0.75 3.02928 0.203184
      vertex -0.75 3.10721 0.263842
    endloop
  endfacet
  facet normal 0 -0.996589 0.0825266
    outer loop
      vertex -0.75 3.54082 -0.0736456
      vertex 0.5 3.54897 0.0247736
      vertex -0.75 3.54897 0.0247736
    endloop
  endfacet
  facet normal 0 -0.996589 0.0825266
    outer loop
      vertex 0.5 3.54897 0.0247736
      vertex -0.75 3.54082 -0.0736456
      vertex 0.5 3.54082 -0.0736456
    endloop
  endfacet
  facet normal 0 -0.915773 0.401696
    outer loop
      vertex -0.75 3.50115 -0.164084
      vertex 0.5 3.54082 -0.0736456
      vertex -0.75 3.54082 -0.0736456
    endloop
  endfacet
  facet normal 0 -0.915773 0.401696
    outer loop
      vertex 0.5 3.54082 -0.0736456
      vertex -0.75 3.50115 -0.164084
      vertex 0.5 3.50115 -0.164084
    endloop
  endfacet
  facet normal 0 0.969384 -0.24555
    outer loop
      vertex 0.5 2.95102 0.0247736
      vertex -0.75 2.97527 0.120508
      vertex 0.5 2.97527 0.120508
    endloop
  endfacet
  facet normal 0 0.969384 -0.24555
    outer loop
      vertex -0.75 2.97527 0.120508
      vertex 0.5 2.95102 0.0247736
      vertex -0.75 2.95102 0.0247736
    endloop
  endfacet
  facet normal 0 -0.837189 -0.546913
    outer loop
      vertex -0.75 3.52473 0.120508
      vertex 0.5 3.47072 0.203184
      vertex -0.75 3.47072 0.203184
    endloop
  endfacet
  facet normal 0 -0.837189 -0.546913
    outer loop
      vertex 0.5 3.47072 0.203184
      vertex -0.75 3.52473 0.120508
      vertex 0.5 3.52473 0.120508
    endloop
  endfacet
  facet normal 0 0.735706 0.677301
    outer loop
      vertex 0.5 3.06574 -0.236742
      vertex -0.75 2.99885 -0.164084
      vertex 0.5 2.99885 -0.164084
    endloop
  endfacet
  facet normal 0 0.735706 0.677301
    outer loop
      vertex -0.75 2.99885 -0.164084
      vertex 0.5 3.06574 -0.236742
      vertex -0.75 3.06574 -0.236742
    endloop
  endfacet
  facet normal -0 0.475964 0.879465
    outer loop
      vertex -0.75 3.15259 -0.283745
      vertex 0.5 3.06574 -0.236742
      vertex 0.5 3.15259 -0.283745
    endloop
  endfacet
  facet normal 0 0.475964 0.879465
    outer loop
      vertex 0.5 3.06574 -0.236742
      vertex -0.75 3.15259 -0.283745
      vertex -0.75 3.06574 -0.236742
    endloop
  endfacet
endsolid OpenSCAD_Model
