solid OpenSCAD_Model
  facet normal 1 -0 0
    outer loop
      vertex 27.5 -40 6
      vertex 27.5 -19 -6
      vertex 27.5 -19 6
    endloop
  endfacet
  facet normal 1 0 0
    outer loop
      vertex 27.5 -19 -6
      vertex 27.5 -40 6
      vertex 27.5 -40 -6
    endloop
  endfacet
  facet normal 0 0 1
    outer loop
      vertex 27.5 -19 6
      vertex 23.5 -30 6
      vertex 27.5 -40 6
    endloop
  endfacet
  facet normal -0 0 1
    outer loop
      vertex 3.82 -19 6
      vertex 23.5 -30 6
      vertex 27.5 -19 6
    endloop
  endfacet
  facet normal 0 0 1
    outer loop
      vertex 3.82 -19 6
      vertex 1.5 -30 6
      vertex 23.5 -30 6
    endloop
  endfacet
  facet normal 0 0 1
    outer loop
      vertex 1.5 -30 6
      vertex 3.82 -19 6
      vertex 1.5 -15 6
    endloop
  endfacet
  facet normal 0 0 1
    outer loop
      vertex 27.5 -40 6
      vertex 23.5 -30 6
      vertex 23.5 -40 6
    endloop
  endfacet
  facet normal 0 0 -1
    outer loop
      vertex 23.5 -30 -6
      vertex 27.5 -40 -6
      vertex 23.5 -40 -6
    endloop
  endfacet
  facet normal 0 0 -1
    outer loop
      vertex 27.5 -40 -6
      vertex 23.5 -30 -6
      vertex 27.5 -19 -6
    endloop
  endfacet
  facet normal 0 0 -1
    outer loop
      vertex 23.5 -30 -6
      vertex 3.82 -19 -6
      vertex 27.5 -19 -6
    endloop
  endfacet
  facet normal 0 0 -1
    outer loop
      vertex 1.5 -30 -6
      vertex 3.82 -19 -6
      vertex 23.5 -30 -6
    endloop
  endfacet
  facet normal -0 0 -1
    outer loop
      vertex 3.82 -19 -6
      vertex 1.5 -30 -6
      vertex 1.5 -15 -6
    endloop
  endfacet
  facet normal 1 0 0
    outer loop
      vertex 1.5 -14.99 13.6
      vertex 1.5 -15 6
      vertex 1.5 -14.99 -54.9
    endloop
  endfacet
  facet normal 1 -0 0
    outer loop
      vertex 1.5 -30 13.6
      vertex 1.5 -15 6
      vertex 1.5 -14.99 13.6
    endloop
  endfacet
  facet normal 1 0 0
    outer loop
      vertex 1.5 -15 6
      vertex 1.5 -30 13.6
      vertex 1.5 -30 6
    endloop
  endfacet
  facet normal 1 -0 0
    outer loop
      vertex 1.5 -12.44 13.6
      vertex 1.5 27.56 -13.6
      vertex 1.5 27.56 13.6
    endloop
  endfacet
  facet normal 1 0 0
    outer loop
      vertex 1.5 27.56 -13.6
      vertex 1.5 -12.44 13.6
      vertex 1.5 -12.44 -13.6
    endloop
  endfacet
  facet normal 1 0 0
    outer loop
      vertex 1.5 27.56 13.6
      vertex 1.5 30 63.8
      vertex 1.5 27.56 54.9
    endloop
  endfacet
  facet normal 1 0 0
    outer loop
      vertex 1.5 30 63.8
      vertex 1.5 -14.99 54.9
      vertex 1.5 27.56 54.9
    endloop
  endfacet
  facet normal 1 -0 0
    outer loop
      vertex 1.5 -30 63.8
      vertex 1.5 -14.99 54.9
      vertex 1.5 30 63.8
    endloop
  endfacet
  facet normal 1 0 0
    outer loop
      vertex 1.5 -30 16.15
      vertex 1.5 -14.99 54.9
      vertex 1.5 -30 63.8
    endloop
  endfacet
  facet normal 1 0 0
    outer loop
      vertex 1.5 -14.99 54.9
      vertex 1.5 -30 16.15
      vertex 1.5 -14.99 16.15
    endloop
  endfacet
  facet normal 1 0 0
    outer loop
      vertex 1.5 30 63.8
      vertex 1.5 27.56 13.6
      vertex 1.5 30 -63.8
    endloop
  endfacet
  facet normal 1 -0 0
    outer loop
      vertex 1.5 27.56 -13.6
      vertex 1.5 30 -63.8
      vertex 1.5 27.56 13.6
    endloop
  endfacet
  facet normal 1 -0 0
    outer loop
      vertex 1.5 27.56 -54.9
      vertex 1.5 30 -63.8
      vertex 1.5 27.56 -13.6
    endloop
  endfacet
  facet normal 1 -0 0
    outer loop
      vertex 1.5 -14.99 -54.9
      vertex 1.5 30 -63.8
      vertex 1.5 27.56 -54.9
    endloop
  endfacet
  facet normal 1 -0 0
    outer loop
      vertex 1.5 -15 -6
      vertex 1.5 -14.99 -54.9
      vertex 1.5 -15 6
    endloop
  endfacet
  facet normal 1 -0 0
    outer loop
      vertex 1.5 -30 -6
      vertex 1.5 -14.99 -54.9
      vertex 1.5 -15 -6
    endloop
  endfacet
  facet normal 1 0 0
    outer loop
      vertex 1.5 -14.99 -54.9
      vertex 1.5 -30 -63.8
      vertex 1.5 30 -63.8
    endloop
  endfacet
  facet normal 1 0 0
    outer loop
      vertex 1.5 -30 -63.8
      vertex 1.5 -14.99 -54.9
      vertex 1.5 -30 -6
    endloop
  endfacet
  facet normal 1 -0 0
    outer loop
      vertex 1.5 -12.44 -16.15
      vertex 1.5 25.01 -52.35
      vertex 1.5 25.01 -16.15
    endloop
  endfacet
  facet normal 1 0 0
    outer loop
      vertex 1.5 25.01 -52.35
      vertex 1.5 -12.44 -16.15
      vertex 1.5 -12.44 -52.35
    endloop
  endfacet
  facet normal 1 -0 0
    outer loop
      vertex 1.5 -12.44 52.35
      vertex 1.5 25.01 16.15
      vertex 1.5 25.01 52.35
    endloop
  endfacet
  facet normal 1 0 0
    outer loop
      vertex 1.5 25.01 16.15
      vertex 1.5 -12.44 52.35
      vertex 1.5 -12.44 16.15
    endloop
  endfacet
  facet normal 0 1 -0
    outer loop
      vertex 27.5 -19 -6
      vertex 3.82 -19 6
      vertex 27.5 -19 6
    endloop
  endfacet
  facet normal 0 1 0
    outer loop
      vertex 3.82 -19 6
      vertex 27.5 -19 -6
      vertex 3.82 -19 -6
    endloop
  endfacet
  facet normal 0 -1 0
    outer loop
      vertex -1.5 -30 63.8
      vertex 0 -30 16.15
      vertex 1.5 -30 63.8
    endloop
  endfacet
  facet normal 0 -1 0
    outer loop
      vertex -1.5 -30 63.8
      vertex 0 -30 13.6
      vertex 0 -30 16.15
    endloop
  endfacet
  facet normal 0 -1 0
    outer loop
      vertex 0 -30 13.6
      vertex 1.5 -30 6
      vertex 1.5 -30 13.6
    endloop
  endfacet
  facet normal 0 -1 0
    outer loop
      vertex 1.5 -30 6
      vertex 1.5 -30 -6
      vertex 23.5 -30 6
    endloop
  endfacet
  facet normal 0 -1 0
    outer loop
      vertex 0 -30 13.6
      vertex 1.5 -30 -6
      vertex 1.5 -30 6
    endloop
  endfacet
  facet normal 0 -1 0
    outer loop
      vertex -1.5 -30 -63.8
      vertex 0 -30 13.6
      vertex -1.5 -30 63.8
    endloop
  endfacet
  facet normal 0 -1 0
    outer loop
      vertex -1.5 -30 -63.8
      vertex 1.5 -30 -6
      vertex 0 -30 13.6
    endloop
  endfacet
  facet normal 0 -1 -0
    outer loop
      vertex 1.5 -30 -6
      vertex -1.5 -30 -63.8
      vertex 1.5 -30 -63.8
    endloop
  endfacet
  facet normal 0 -1 -0
    outer loop
      vertex 1.5 -30 63.8
      vertex 0 -30 16.15
      vertex 1.5 -30 16.15
    endloop
  endfacet
  facet normal 0 -1 -0
    outer loop
      vertex 23.5 -30 6
      vertex 1.5 -30 -6
      vertex 23.5 -30 -6
    endloop
  endfacet
  facet normal -1 0 0
    outer loop
      vertex 23.5 -40 -6
      vertex 23.5 -30 6
      vertex 23.5 -30 -6
    endloop
  endfacet
  facet normal -1 -0 0
    outer loop
      vertex 23.5 -30 6
      vertex 23.5 -40 -6
      vertex 23.5 -40 6
    endloop
  endfacet
  facet normal 0 -1 0
    outer loop
      vertex 23.5 -40 -6
      vertex 27.5 -40 6
      vertex 23.5 -40 6
    endloop
  endfacet
  facet normal 0 -1 -0
    outer loop
      vertex 27.5 -40 6
      vertex 23.5 -40 -6
      vertex 27.5 -40 -6
    endloop
  endfacet
  facet normal 0 0 -1
    outer loop
      vertex 0 -14.99 54.9
      vertex 1.5 27.56 54.9
      vertex 1.5 -14.99 54.9
    endloop
  endfacet
  facet normal -0 0 -1
    outer loop
      vertex 1.5 27.56 54.9
      vertex 0 -14.99 54.9
      vertex 0 27.56 54.9
    endloop
  endfacet
  facet normal -0 0 1
    outer loop
      vertex 0 25.01 52.35
      vertex 1.5 -12.44 52.35
      vertex 1.5 25.01 52.35
    endloop
  endfacet
  facet normal 0 0 1
    outer loop
      vertex 1.5 -12.44 52.35
      vertex 0 25.01 52.35
      vertex 0 -12.44 52.35
    endloop
  endfacet
  facet normal 1 -0 0
    outer loop
      vertex 0 -30 16.15
      vertex 0 -14.99 13.6
      vertex 0 -14.99 16.15
    endloop
  endfacet
  facet normal 1 0 0
    outer loop
      vertex 0 -14.99 13.6
      vertex 0 -30 16.15
      vertex 0 -30 13.6
    endloop
  endfacet
  facet normal 1 0 0
    outer loop
      vertex 0 27.56 54.9
      vertex 0 25.01 52.35
      vertex 0 27.56 13.6
    endloop
  endfacet
  facet normal 1 0 0
    outer loop
      vertex 0 27.56 54.9
      vertex 0 -12.44 52.35
      vertex 0 25.01 52.35
    endloop
  endfacet
  facet normal 1 0 0
    outer loop
      vertex 0 -14.99 16.15
      vertex 0 -12.44 16.15
      vertex 0 -12.44 52.35
    endloop
  endfacet
  facet normal 1 0 0
    outer loop
      vertex 0 -12.44 16.15
      vertex 0 -14.99 16.15
      vertex 0 -12.44 13.6
    endloop
  endfacet
  facet normal 1 0 0
    outer loop
      vertex 0 -14.99 13.6
      vertex 0 -12.44 13.6
      vertex 0 -14.99 16.15
    endloop
  endfacet
  facet normal 1 0 0
    outer loop
      vertex 0 -12.44 13.6
      vertex 0 -14.99 13.6
      vertex 0 -12.44 -13.6
    endloop
  endfacet
  facet normal 1 0 0
    outer loop
      vertex 0 -14.99 16.15
      vertex 0 -12.44 52.35
      vertex 0 -14.99 54.9
    endloop
  endfacet
  facet normal 1 -0 0
    outer loop
      vertex 0 -14.99 54.9
      vertex 0 -12.44 52.35
      vertex 0 27.56 54.9
    endloop
  endfacet
  facet normal 1 -0 0
    outer loop
      vertex 0 25.01 16.15
      vertex 0 27.56 13.6
      vertex 0 25.01 52.35
    endloop
  endfacet
  facet normal 1 0 0
    outer loop
      vertex 0 -12.44 13.6
      vertex 0 25.01 16.15
      vertex 0 -12.44 16.15
    endloop
  endfacet
  facet normal 1 0 0
    outer loop
      vertex 0 25.01 16.15
      vertex 0 -12.44 13.6
      vertex 0 27.56 13.6
    endloop
  endfacet
  facet normal 1 0 0
    outer loop
      vertex 0 27.56 -13.6
      vertex 0 25.01 -16.15
      vertex 0 27.56 -54.9
    endloop
  endfacet
  facet normal 1 -0 0
    outer loop
      vertex 0 -12.44 -13.6
      vertex 0 25.01 -16.15
      vertex 0 27.56 -13.6
    endloop
  endfacet
  facet normal 1 0 0
    outer loop
      vertex 0 25.01 -16.15
      vertex 0 -12.44 -13.6
      vertex 0 -12.44 -16.15
    endloop
  endfacet
  facet normal 1 -0 0
    outer loop
      vertex 0 25.01 -52.35
      vertex 0 27.56 -54.9
      vertex 0 25.01 -16.15
    endloop
  endfacet
  facet normal 1 -0 0
    outer loop
      vertex 0 -12.44 -52.35
      vertex 0 27.56 -54.9
      vertex 0 25.01 -52.35
    endloop
  endfacet
  facet normal 1 0 0
    outer loop
      vertex 0 -12.44 -13.6
      vertex 0 -14.99 13.6
      vertex 0 -12.44 -16.15
    endloop
  endfacet
  facet normal 1 0 0
    outer loop
      vertex 0 -14.99 -54.9
      vertex 0 -12.44 -16.15
      vertex 0 -14.99 13.6
    endloop
  endfacet
  facet normal 1 0 0
    outer loop
      vertex 0 -12.44 -52.35
      vertex 0 -14.99 -54.9
      vertex 0 27.56 -54.9
    endloop
  endfacet
  facet normal 1 0 0
    outer loop
      vertex 0 -12.44 -16.15
      vertex 0 -14.99 -54.9
      vertex 0 -12.44 -52.35
    endloop
  endfacet
  facet normal 0 -1 0
    outer loop
      vertex 0 27.56 13.6
      vertex 1.5 27.56 54.9
      vertex 0 27.56 54.9
    endloop
  endfacet
  facet normal 0 -1 -0
    outer loop
      vertex 1.5 27.56 54.9
      vertex 0 27.56 13.6
      vertex 1.5 27.56 13.6
    endloop
  endfacet
  facet normal 0 1 -0
    outer loop
      vertex 1.5 -14.99 -54.9
      vertex 0 -14.99 13.6
      vertex 1.5 -14.99 13.6
    endloop
  endfacet
  facet normal 0 1 0
    outer loop
      vertex 0 -14.99 13.6
      vertex 1.5 -14.99 -54.9
      vertex 0 -14.99 -54.9
    endloop
  endfacet
  facet normal 0 1 -0
    outer loop
      vertex 1.5 -14.99 16.15
      vertex 0 -14.99 54.9
      vertex 1.5 -14.99 54.9
    endloop
  endfacet
  facet normal 0 1 0
    outer loop
      vertex 0 -14.99 54.9
      vertex 1.5 -14.99 16.15
      vertex 0 -14.99 16.15
    endloop
  endfacet
  facet normal -0 0 1
    outer loop
      vertex 0 27.56 -54.9
      vertex 1.5 -14.99 -54.9
      vertex 1.5 27.56 -54.9
    endloop
  endfacet
  facet normal 0 0 1
    outer loop
      vertex 1.5 -14.99 -54.9
      vertex 0 27.56 -54.9
      vertex 0 -14.99 -54.9
    endloop
  endfacet
  facet normal 0 -1 0
    outer loop
      vertex 0 -12.44 16.15
      vertex 1.5 -12.44 52.35
      vertex 0 -12.44 52.35
    endloop
  endfacet
  facet normal 0 -1 -0
    outer loop
      vertex 1.5 -12.44 52.35
      vertex 0 -12.44 16.15
      vertex 1.5 -12.44 16.15
    endloop
  endfacet
  facet normal 0 -1 0
    outer loop
      vertex 0 -12.44 -13.6
      vertex 1.5 -12.44 13.6
      vertex 0 -12.44 13.6
    endloop
  endfacet
  facet normal 0 -1 -0
    outer loop
      vertex 1.5 -12.44 13.6
      vertex 0 -12.44 -13.6
      vertex 1.5 -12.44 -13.6
    endloop
  endfacet
  facet normal 0 -1 0
    outer loop
      vertex 0 -12.44 -52.35
      vertex 1.5 -12.44 -16.15
      vertex 0 -12.44 -16.15
    endloop
  endfacet
  facet normal 0 -1 -0
    outer loop
      vertex 1.5 -12.44 -16.15
      vertex 0 -12.44 -52.35
      vertex 1.5 -12.44 -52.35
    endloop
  endfacet
  facet normal -0 0 1
    outer loop
      vertex 0 -14.99 13.6
      vertex 1.5 -30 13.6
      vertex 1.5 -14.99 13.6
    endloop
  endfacet
  facet normal 0 0 1
    outer loop
      vertex 1.5 -30 13.6
      vertex 0 -14.99 13.6
      vertex 0 -30 13.6
    endloop
  endfacet
  facet normal -0 0 1
    outer loop
      vertex 0 27.56 13.6
      vertex 1.5 -12.44 13.6
      vertex 1.5 27.56 13.6
    endloop
  endfacet
  facet normal 0 0 1
    outer loop
      vertex 1.5 -12.44 13.6
      vertex 0 27.56 13.6
      vertex 0 -12.44 13.6
    endloop
  endfacet
  facet normal 0 1 -0
    outer loop
      vertex 1.5 25.01 16.15
      vertex 0 25.01 52.35
      vertex 1.5 25.01 52.35
    endloop
  endfacet
  facet normal 0 1 0
    outer loop
      vertex 0 25.01 52.35
      vertex 1.5 25.01 16.15
      vertex 0 25.01 16.15
    endloop
  endfacet
  facet normal 0 0 -1
    outer loop
      vertex 0 -30 16.15
      vertex 1.5 -14.99 16.15
      vertex 1.5 -30 16.15
    endloop
  endfacet
  facet normal -0 0 -1
    outer loop
      vertex 1.5 -14.99 16.15
      vertex 0 -30 16.15
      vertex 0 -14.99 16.15
    endloop
  endfacet
  facet normal 0 0 -1
    outer loop
      vertex 0 -12.44 16.15
      vertex 1.5 25.01 16.15
      vertex 1.5 -12.44 16.15
    endloop
  endfacet
  facet normal -0 0 -1
    outer loop
      vertex 1.5 25.01 16.15
      vertex 0 -12.44 16.15
      vertex 0 25.01 16.15
    endloop
  endfacet
  facet normal 0 0 -1
    outer loop
      vertex 0 -12.44 -52.35
      vertex 1.5 25.01 -52.35
      vertex 1.5 -12.44 -52.35
    endloop
  endfacet
  facet normal -0 0 -1
    outer loop
      vertex 1.5 25.01 -52.35
      vertex 0 -12.44 -52.35
      vertex 0 25.01 -52.35
    endloop
  endfacet
  facet normal 0 -1 0
    outer loop
      vertex 0 27.56 -54.9
      vertex 1.5 27.56 -13.6
      vertex 0 27.56 -13.6
    endloop
  endfacet
  facet normal 0 -1 -0
    outer loop
      vertex 1.5 27.56 -13.6
      vertex 0 27.56 -54.9
      vertex 1.5 27.56 -54.9
    endloop
  endfacet
  facet normal 0 0 -1
    outer loop
      vertex 0 -12.44 -13.6
      vertex 1.5 27.56 -13.6
      vertex 1.5 -12.44 -13.6
    endloop
  endfacet
  facet normal -0 0 -1
    outer loop
      vertex 1.5 27.56 -13.6
      vertex 0 -12.44 -13.6
      vertex 0 27.56 -13.6
    endloop
  endfacet
  facet normal 0 1 -0
    outer loop
      vertex 1.5 25.01 -52.35
      vertex 0 25.01 -16.15
      vertex 1.5 25.01 -16.15
    endloop
  endfacet
  facet normal 0 1 0
    outer loop
      vertex 0 25.01 -16.15
      vertex 1.5 25.01 -52.35
      vertex 0 25.01 -52.35
    endloop
  endfacet
  facet normal -0 0 1
    outer loop
      vertex 0 25.01 -16.15
      vertex 1.5 -12.44 -16.15
      vertex 1.5 25.01 -16.15
    endloop
  endfacet
  facet normal 0 0 1
    outer loop
      vertex 1.5 -12.44 -16.15
      vertex 0 25.01 -16.15
      vertex 0 -12.44 -16.15
    endloop
  endfacet
  facet normal -0 0 1
    outer loop
      vertex -1.5 30 63.8
      vertex 1.5 -30 63.8
      vertex 1.5 30 63.8
    endloop
  endfacet
  facet normal 0 0 1
    outer loop
      vertex 1.5 -30 63.8
      vertex -1.5 30 63.8
      vertex -1.5 -30 63.8
    endloop
  endfacet
  facet normal 0 0 -1
    outer loop
      vertex -1.5 -30 -63.8
      vertex 1.5 30 -63.8
      vertex 1.5 -30 -63.8
    endloop
  endfacet
  facet normal -0 0 -1
    outer loop
      vertex 1.5 30 -63.8
      vertex -1.5 -30 -63.8
      vertex -1.5 30 -63.8
    endloop
  endfacet
  facet normal -1 0 0
    outer loop
      vertex -1.5 -30 -63.8
      vertex -1.5 30 63.8
      vertex -1.5 30 -63.8
    endloop
  endfacet
  facet normal -1 -0 0
    outer loop
      vertex -1.5 30 63.8
      vertex -1.5 -30 -63.8
      vertex -1.5 -30 63.8
    endloop
  endfacet
  facet normal 0 1 -0
    outer loop
      vertex 1.5 30 -63.8
      vertex -1.5 30 63.8
      vertex 1.5 30 63.8
    endloop
  endfacet
  facet normal 0 1 0
    outer loop
      vertex -1.5 30 63.8
      vertex 1.5 30 -63.8
      vertex -1.5 30 -63.8
    endloop
  endfacet
  facet normal 0.865031 0.501718 0
    outer loop
      vertex 3.82 -19 6
      vertex 1.5 -15 -6
      vertex 1.5 -15 6
    endloop
  endfacet
  facet normal 0.865031 0.501718 0
    outer loop
      vertex 1.5 -15 -6
      vertex 3.82 -19 6
      vertex 3.82 -19 -6
    endloop
  endfacet
endsolid OpenSCAD_Model
