solid OpenSCAD_Model
  facet normal -0 0 1
    outer loop
      vertex -1.5 30 63.8
      vertex 1.5 -30 63.8
      vertex 1.5 30 63.8
    endloop
  endfacet
  facet normal 0 0 1
    outer loop
      vertex 1.5 -30 63.8
      vertex -1.5 30 63.8
      vertex -1.5 -30 63.8
    endloop
  endfacet
  facet normal 0 0 -1
    outer loop
      vertex -1.5 -30 -63.8
      vertex 1.5 30 -63.8
      vertex 1.5 -30 -63.8
    endloop
  endfacet
  facet normal -0 0 -1
    outer loop
      vertex 1.5 30 -63.8
      vertex -1.5 -30 -63.8
      vertex -1.5 30 -63.8
    endloop
  endfacet
  facet normal 0 -1 0
    outer loop
      vertex -1.5 -30 -63.8
      vertex 1.5 -30 63.8
      vertex -1.5 -30 63.8
    endloop
  endfacet
  facet normal 0 -1 -0
    outer loop
      vertex 1.5 -30 63.8
      vertex -1.5 -30 -63.8
      vertex 1.5 -30 -63.8
    endloop
  endfacet
  facet normal 1 -0 0
    outer loop
      vertex 1.5 -30 63.8
      vertex 1.5 30 -63.8
      vertex 1.5 30 63.8
    endloop
  endfacet
  facet normal 1 0 0
    outer loop
      vertex 1.5 30 -63.8
      vertex 1.5 -30 63.8
      vertex 1.5 -30 -63.8
    endloop
  endfacet
  facet normal 0 1 -0
    outer loop
      vertex 1.5 30 -63.8
      vertex -1.5 30 63.8
      vertex 1.5 30 63.8
    endloop
  endfacet
  facet normal 0 1 0
    outer loop
      vertex -1.5 30 63.8
      vertex 1.5 30 -63.8
      vertex -1.5 30 -63.8
    endloop
  endfacet
  facet normal -1 0 0
    outer loop
      vertex -1.5 -30 -63.8
      vertex -1.5 30 63.8
      vertex -1.5 30 -63.8
    endloop
  endfacet
  facet normal -1 -0 0
    outer loop
      vertex -1.5 30 63.8
      vertex -1.5 -30 -63.8
      vertex -1.5 -30 63.8
    endloop
  endfacet
endsolid OpenSCAD_Model
